<?xml version="1.0" encoding="UTF-8"?>
<svg xmlns="http://www.w3.org/2000/svg" version="1.1" width="200" height="200" viewBox="0 0 200 200"><rect x="0" y="0" width="200" height="200" fill="#ffffff"/><g transform="scale(9.524)"><g transform="translate(0,0)"><path fill-rule="evenodd" d="M9 0L9 1L8 1L8 2L9 2L9 3L8 3L8 4L10 4L10 5L8 5L8 7L9 7L9 6L10 6L10 8L6 8L6 9L5 9L5 8L0 8L0 10L3 10L3 12L2 12L2 11L0 11L0 13L1 13L1 12L2 12L2 13L3 13L3 12L4 12L4 13L7 13L7 12L6 12L6 11L8 11L8 15L9 15L9 16L8 16L8 21L9 21L9 18L10 18L10 19L11 19L11 20L12 20L12 19L11 19L11 17L12 17L12 18L13 18L13 16L12 16L12 14L13 14L13 12L14 12L14 13L16 13L16 12L17 12L17 11L19 11L19 10L20 10L20 8L19 8L19 10L17 10L17 9L18 9L18 8L17 8L17 9L16 9L16 8L15 8L15 10L14 10L14 8L12 8L12 7L13 7L13 5L11 5L11 4L12 4L12 2L13 2L13 0L12 0L12 2L11 2L11 4L10 4L10 0ZM11 6L11 7L12 7L12 6ZM10 8L10 10L9 10L9 12L11 12L11 11L12 11L12 12L13 12L13 11L14 11L14 10L13 10L13 9L11 9L11 8ZM3 9L3 10L4 10L4 12L5 12L5 11L6 11L6 10L8 10L8 9L6 9L6 10L4 10L4 9ZM15 10L15 12L16 12L16 10ZM20 12L20 13L18 13L18 14L19 14L19 16L20 16L20 17L21 17L21 15L20 15L20 13L21 13L21 12ZM15 14L15 17L14 17L14 18L15 18L15 19L14 19L14 20L13 20L13 21L14 21L14 20L15 20L15 21L18 21L18 20L19 20L19 17L18 17L18 16L17 16L17 14ZM9 16L9 17L10 17L10 16ZM16 16L16 17L15 17L15 18L16 18L16 19L17 19L17 18L18 18L18 17L17 17L17 16ZM20 19L20 20L21 20L21 19ZM0 0L0 7L7 7L7 0ZM1 1L1 6L6 6L6 1ZM2 2L2 5L5 5L5 2ZM14 0L14 7L21 7L21 0ZM15 1L15 6L20 6L20 1ZM16 2L16 5L19 5L19 2ZM0 14L0 21L7 21L7 14ZM1 15L1 20L6 20L6 15ZM2 16L2 19L5 19L5 16Z" fill="#000000"/></g></g></svg>
