<?xml version="1.0" encoding="UTF-8"?>
<svg xmlns="http://www.w3.org/2000/svg" version="1.1" width="200" height="200" viewBox="0 0 200 200"><rect x="0" y="0" width="200" height="200" fill="#ffffff"/><g transform="scale(9.524)"><g transform="translate(0,0)"><path fill-rule="evenodd" d="M10 0L10 1L9 1L9 2L8 2L8 3L9 3L9 6L8 6L8 8L4 8L4 9L3 9L3 8L0 8L0 13L2 13L2 12L3 12L3 13L5 13L5 12L6 12L6 13L8 13L8 17L10 17L10 18L8 18L8 21L10 21L10 20L9 20L9 19L10 19L10 18L11 18L11 19L12 19L12 20L13 20L13 21L15 21L15 20L17 20L17 21L18 21L18 20L17 20L17 19L19 19L19 20L20 20L20 21L21 21L21 18L20 18L20 17L19 17L19 18L18 18L18 16L19 16L19 15L20 15L20 16L21 16L21 14L19 14L19 15L15 15L15 14L14 14L14 13L13 13L13 10L12 10L12 11L11 11L11 13L9 13L9 12L10 12L10 9L12 9L12 7L13 7L13 6L12 6L12 7L11 7L11 5L12 5L12 2L13 2L13 0L12 0L12 1L11 1L11 0ZM10 1L10 2L9 2L9 3L10 3L10 5L11 5L11 3L10 3L10 2L11 2L11 1ZM9 6L9 9L10 9L10 6ZM13 8L13 9L15 9L15 11L14 11L14 12L15 12L15 11L16 11L16 13L17 13L17 14L18 14L18 13L17 13L17 12L20 12L20 11L21 11L21 10L20 10L20 11L19 11L19 8L18 8L18 9L15 9L15 8ZM4 9L4 10L5 10L5 11L4 11L4 12L5 12L5 11L6 11L6 12L7 12L7 11L6 11L6 10L7 10L7 9ZM1 10L1 11L3 11L3 10ZM8 10L8 11L9 11L9 10ZM16 10L16 11L17 11L17 10ZM12 13L12 16L11 16L11 15L10 15L10 17L12 17L12 16L13 16L13 17L14 17L14 16L15 16L15 19L16 19L16 18L17 18L17 17L16 17L16 16L15 16L15 15L14 15L14 14L13 14L13 13ZM13 15L13 16L14 16L14 15ZM12 18L12 19L14 19L14 18ZM19 18L19 19L20 19L20 18ZM0 0L0 7L7 7L7 0ZM1 1L1 6L6 6L6 1ZM2 2L2 5L5 5L5 2ZM14 0L14 7L21 7L21 0ZM15 1L15 6L20 6L20 1ZM16 2L16 5L19 5L19 2ZM0 14L0 21L7 21L7 14ZM1 15L1 20L6 20L6 15ZM2 16L2 19L5 19L5 16Z" fill="#000000"/></g></g></svg>
