<?xml version="1.0" encoding="UTF-8"?>
<svg xmlns="http://www.w3.org/2000/svg" version="1.1" width="200" height="200" viewBox="0 0 200 200"><rect x="0" y="0" width="200" height="200" fill="#ffffff"/><g transform="scale(6.452)"><g transform="translate(1,1)"><path fill-rule="evenodd" d="M9 0L9 1L10 1L10 2L8 2L8 4L10 4L10 7L9 7L9 6L8 6L8 7L9 7L9 9L10 9L10 10L8 10L8 8L6 8L6 9L7 9L7 10L5 10L5 8L3 8L3 9L0 9L0 11L1 11L1 12L0 12L0 21L3 21L3 18L4 18L4 21L8 21L8 23L9 23L9 24L8 24L8 26L10 26L10 25L11 25L11 27L9 27L9 28L10 28L10 29L11 29L11 28L12 28L12 29L13 29L13 28L12 28L12 26L13 26L13 27L14 27L14 26L15 26L15 27L17 27L17 28L18 28L18 29L19 29L19 28L20 28L20 29L21 29L21 27L22 27L22 28L23 28L23 29L25 29L25 27L26 27L26 29L28 29L28 28L27 28L27 27L29 27L29 26L27 26L27 25L25 25L25 21L26 21L26 22L27 22L27 21L28 21L28 23L26 23L26 24L29 24L29 21L28 21L28 20L29 20L29 14L27 14L27 18L26 18L26 17L25 17L25 16L22 16L22 18L21 18L21 15L20 15L20 14L22 14L22 12L19 12L19 11L16 11L16 12L17 12L17 13L16 13L16 15L17 15L17 17L16 17L16 18L17 18L17 19L19 19L19 15L20 15L20 19L21 19L21 20L20 20L20 22L19 22L19 23L18 23L18 22L17 22L17 21L16 21L16 22L15 22L15 20L16 20L16 19L15 19L15 20L14 20L14 18L15 18L15 13L14 13L14 14L12 14L12 15L11 15L11 14L10 14L10 13L9 13L9 11L10 11L10 12L12 12L12 13L13 13L13 11L11 11L11 9L12 9L12 10L13 10L13 9L12 9L12 8L11 8L11 9L10 9L10 7L11 7L11 6L12 6L12 7L13 7L13 8L15 8L15 9L14 9L14 11L15 11L15 9L16 9L16 10L17 10L17 6L18 6L18 7L19 7L19 8L18 8L18 9L19 9L19 8L20 8L20 10L21 10L21 11L22 11L22 10L23 10L23 9L21 9L21 6L20 6L20 5L21 5L21 4L20 4L20 3L21 3L21 1L20 1L20 0L18 0L18 1L15 1L15 3L13 3L13 2L14 2L14 1L12 1L12 0L11 0L11 1L10 1L10 0ZM19 1L19 2L18 2L18 3L17 3L17 2L16 2L16 3L15 3L15 4L18 4L18 5L20 5L20 4L18 4L18 3L20 3L20 1ZM10 3L10 4L12 4L12 6L13 6L13 7L14 7L14 6L13 6L13 5L14 5L14 4L13 4L13 3ZM15 5L15 8L16 8L16 6L17 6L17 5ZM19 6L19 7L20 7L20 6ZM25 8L25 9L24 9L24 11L23 11L23 12L24 12L24 14L26 14L26 13L28 13L28 12L29 12L29 11L28 11L28 10L29 10L29 9L27 9L27 8ZM3 9L3 10L2 10L2 13L3 13L3 14L2 14L2 15L3 15L3 17L2 17L2 18L3 18L3 17L4 17L4 18L5 18L5 19L6 19L6 20L8 20L8 21L10 21L10 22L9 22L9 23L10 23L10 22L12 22L12 21L11 21L11 20L13 20L13 18L12 18L12 16L13 16L13 15L12 15L12 16L11 16L11 15L10 15L10 16L11 16L11 17L10 17L10 18L9 18L9 16L8 16L8 17L4 17L4 16L7 16L7 15L4 15L4 14L8 14L8 15L9 15L9 14L8 14L8 13L6 13L6 12L8 12L8 10L7 10L7 11L5 11L5 12L3 12L3 10L4 10L4 9ZM25 9L25 11L27 11L27 12L28 12L28 11L27 11L27 9ZM18 12L18 13L17 13L17 14L18 14L18 15L19 15L19 12ZM23 17L23 18L24 18L24 20L25 20L25 19L26 19L26 21L27 21L27 19L28 19L28 18L27 18L27 19L26 19L26 18L25 18L25 17ZM6 18L6 19L8 19L8 20L10 20L10 19L12 19L12 18L10 18L10 19L9 19L9 18ZM18 20L18 21L19 21L19 20ZM21 21L21 24L24 24L24 21ZM13 22L13 23L12 23L12 24L11 24L11 25L12 25L12 24L13 24L13 26L14 26L14 22ZM22 22L22 23L23 23L23 22ZM16 23L16 24L15 24L15 26L16 26L16 24L17 24L17 26L18 26L18 28L19 28L19 27L21 27L21 25L20 25L20 24L19 24L19 25L20 25L20 26L18 26L18 24L17 24L17 23ZM9 24L9 25L10 25L10 24ZM24 25L24 26L25 26L25 25ZM22 26L22 27L23 27L23 26ZM26 26L26 27L27 27L27 26ZM0 0L0 7L7 7L7 0ZM1 1L1 6L6 6L6 1ZM2 2L2 5L5 5L5 2ZM22 0L22 7L29 7L29 0ZM23 1L23 6L28 6L28 1ZM24 2L24 5L27 5L27 2ZM0 22L0 29L7 29L7 22ZM1 23L1 28L6 28L6 23ZM2 24L2 27L5 27L5 24Z" fill="#000000"/></g></g></svg>
