<?xml version="1.0" encoding="UTF-8"?>
<svg xmlns="http://www.w3.org/2000/svg" version="1.1" width="200" height="200" viewBox="0 0 200 200"><rect x="0" y="0" width="200" height="200" fill="#ffffff"/><g transform="scale(6.452)"><g transform="translate(1,1)"><path fill-rule="evenodd" d="M8 0L8 1L10 1L10 0ZM12 0L12 1L11 1L11 2L12 2L12 4L11 4L11 5L10 5L10 3L8 3L8 4L9 4L9 5L10 5L10 7L11 7L11 5L12 5L12 4L13 4L13 6L12 6L12 8L11 8L11 10L12 10L12 11L11 11L11 12L10 12L10 11L9 11L9 8L8 8L8 10L5 10L5 9L7 9L7 8L4 8L4 9L3 9L3 8L2 8L2 9L0 9L0 10L2 10L2 9L3 9L3 10L5 10L5 13L4 13L4 14L5 14L5 15L2 15L2 14L3 14L3 12L4 12L4 11L0 11L0 12L1 12L1 13L0 13L0 15L1 15L1 16L2 16L2 19L1 19L1 18L0 18L0 19L1 19L1 20L0 20L0 21L1 21L1 20L2 20L2 19L4 19L4 20L3 20L3 21L5 21L5 20L6 20L6 21L7 21L7 20L6 20L6 19L8 19L8 22L9 22L9 23L8 23L8 25L9 25L9 26L8 26L8 27L9 27L9 29L13 29L13 28L14 28L14 27L13 27L13 26L12 26L12 24L13 24L13 23L14 23L14 24L15 24L15 25L14 25L14 26L17 26L17 27L15 27L15 28L18 28L18 29L19 29L19 28L18 28L18 24L19 24L19 27L21 27L21 28L20 28L20 29L23 29L23 28L22 28L22 27L21 27L21 25L22 25L22 26L23 26L23 27L25 27L25 28L24 28L24 29L25 29L25 28L26 28L26 29L27 29L27 28L28 28L28 29L29 29L29 26L28 26L28 25L29 25L29 23L28 23L28 25L27 25L27 26L26 26L26 24L27 24L27 23L25 23L25 22L26 22L26 21L27 21L27 19L28 19L28 20L29 20L29 18L27 18L27 17L28 17L28 15L27 15L27 14L28 14L28 13L27 13L27 12L28 12L28 11L29 11L29 10L28 10L28 11L27 11L27 12L26 12L26 10L27 10L27 9L26 9L26 8L25 8L25 10L24 10L24 9L23 9L23 10L22 10L22 11L21 11L21 12L20 12L20 11L17 11L17 8L18 8L18 10L20 10L20 7L21 7L21 6L20 6L20 7L19 7L19 6L18 6L18 5L17 5L17 4L16 4L16 5L15 5L15 3L18 3L18 2L16 2L16 1L19 1L19 0L15 0L15 1L14 1L14 0ZM12 1L12 2L14 2L14 1ZM19 2L19 3L20 3L20 5L21 5L21 3L20 3L20 2ZM14 5L14 6L13 6L13 8L12 8L12 10L13 10L13 8L14 8L14 9L15 9L15 10L14 10L14 12L11 12L11 13L10 13L10 12L9 12L9 11L8 11L8 12L7 12L7 11L6 11L6 12L7 12L7 13L5 13L5 14L9 14L9 15L8 15L8 16L7 16L7 15L6 15L6 16L7 16L7 17L5 17L5 18L4 18L4 16L3 16L3 18L4 18L4 19L5 19L5 18L7 18L7 17L8 17L8 18L9 18L9 22L11 22L11 21L12 21L12 23L9 23L9 25L10 25L10 24L12 24L12 23L13 23L13 22L15 22L15 20L14 20L14 19L17 19L17 20L20 20L20 19L19 19L19 18L18 18L18 19L17 19L17 17L20 17L20 16L21 16L21 15L20 15L20 14L22 14L22 15L25 15L25 13L26 13L26 12L25 12L25 11L24 11L24 12L25 12L25 13L24 13L24 14L23 14L23 12L21 12L21 13L20 13L20 12L18 12L18 13L17 13L17 14L16 14L16 15L15 15L15 14L14 14L14 15L15 15L15 16L12 16L12 15L10 15L10 14L13 14L13 13L14 13L14 12L15 12L15 13L16 13L16 12L17 12L17 11L16 11L16 9L15 9L15 8L17 8L17 7L18 7L18 6L17 6L17 5L16 5L16 6L15 6L15 5ZM8 6L8 7L9 7L9 6ZM14 6L14 8L15 8L15 6ZM16 6L16 7L17 7L17 6ZM21 8L21 9L22 9L22 8ZM28 8L28 9L29 9L29 8ZM15 11L15 12L16 12L16 11ZM1 13L1 14L2 14L2 13ZM18 13L18 14L17 14L17 15L19 15L19 16L20 16L20 15L19 15L19 14L20 14L20 13ZM9 15L9 16L8 16L8 17L9 17L9 18L10 18L10 17L11 17L11 19L13 19L13 18L15 18L15 17L17 17L17 16L15 16L15 17L13 17L13 18L12 18L12 16L10 16L10 15ZM22 16L22 18L21 18L21 20L22 20L22 18L23 18L23 20L24 20L24 19L25 19L25 21L26 21L26 19L25 19L25 18L24 18L24 16ZM25 16L25 17L27 17L27 16ZM10 20L10 21L11 21L11 20ZM12 20L12 21L14 21L14 20ZM18 21L18 22L17 22L17 23L16 23L16 24L18 24L18 22L19 22L19 21ZM21 21L21 24L24 24L24 21ZM28 21L28 22L29 22L29 21ZM22 22L22 23L23 23L23 22ZM19 23L19 24L20 24L20 23ZM23 25L23 26L24 26L24 25ZM9 26L9 27L10 27L10 28L11 28L11 27L12 27L12 28L13 28L13 27L12 27L12 26ZM25 26L25 27L26 27L26 28L27 28L27 27L28 27L28 26L27 26L27 27L26 27L26 26ZM0 0L0 7L7 7L7 0ZM1 1L1 6L6 6L6 1ZM2 2L2 5L5 5L5 2ZM22 0L22 7L29 7L29 0ZM23 1L23 6L28 6L28 1ZM24 2L24 5L27 5L27 2ZM0 22L0 29L7 29L7 22ZM1 23L1 28L6 28L6 23ZM2 24L2 27L5 27L5 24Z" fill="#000000"/></g></g></svg>
