<?xml version="1.0" encoding="UTF-8"?>
<svg xmlns="http://www.w3.org/2000/svg" version="1.1" width="200" height="200" viewBox="0 0 200 200"><rect x="0" y="0" width="200" height="200" fill="#ffffff"/><g transform="scale(6.452)"><g transform="translate(1,1)"><path fill-rule="evenodd" d="M9 0L9 1L8 1L8 2L9 2L9 5L8 5L8 8L4 8L4 9L2 9L2 11L3 11L3 12L2 12L2 13L3 13L3 14L2 14L2 19L3 19L3 21L4 21L4 18L6 18L6 19L5 19L5 20L6 20L6 21L7 21L7 20L6 20L6 19L7 19L7 18L8 18L8 19L10 19L10 20L11 20L11 21L12 21L12 24L10 24L10 23L11 23L11 22L10 22L10 21L9 21L9 20L8 20L8 25L10 25L10 26L9 26L9 29L10 29L10 28L12 28L12 29L14 29L14 28L12 28L12 27L13 27L13 25L12 25L12 24L13 24L13 23L14 23L14 24L15 24L15 26L14 26L14 27L15 27L15 28L16 28L16 29L17 29L17 28L18 28L18 29L22 29L22 28L23 28L23 27L22 27L22 26L24 26L24 25L25 25L25 26L27 26L27 28L24 28L24 29L27 29L27 28L28 28L28 27L29 27L29 26L27 26L27 25L29 25L29 24L28 24L28 22L29 22L29 20L28 20L28 21L27 21L27 20L25 20L25 18L24 18L24 17L26 17L26 19L27 19L27 18L28 18L28 19L29 19L29 18L28 18L28 17L29 17L29 15L28 15L28 13L29 13L29 10L28 10L28 8L27 8L27 9L26 9L26 10L25 10L25 9L24 9L24 8L22 8L22 9L19 9L19 5L20 5L20 7L21 7L21 1L20 1L20 0L17 0L17 2L16 2L16 0L14 0L14 1L15 1L15 2L16 2L16 4L17 4L17 2L18 2L18 3L19 3L19 5L18 5L18 7L17 7L17 6L16 6L16 8L15 8L15 3L14 3L14 2L13 2L13 3L12 3L12 1L13 1L13 0L11 0L11 3L10 3L10 0ZM19 1L19 2L20 2L20 1ZM11 3L11 4L12 4L12 5L13 5L13 4L14 4L14 3L13 3L13 4L12 4L12 3ZM9 6L9 8L8 8L8 10L7 10L7 9L6 9L6 10L3 10L3 11L6 11L6 12L8 12L8 13L6 13L6 14L8 14L8 15L6 15L6 16L9 16L9 17L8 17L8 18L10 18L10 19L11 19L11 20L12 20L12 19L11 19L11 17L10 17L10 16L9 16L9 14L8 14L8 13L10 13L10 14L11 14L11 16L12 16L12 15L14 15L14 18L13 18L13 19L14 19L14 18L15 18L15 20L13 20L13 21L15 21L15 23L16 23L16 21L17 21L17 22L18 22L18 23L17 23L17 24L18 24L18 25L16 25L16 26L15 26L15 27L16 27L16 28L17 28L17 27L18 27L18 28L19 28L19 27L18 27L18 26L19 26L19 25L20 25L20 28L21 28L21 25L20 25L20 24L19 24L19 22L18 22L18 21L17 21L17 20L19 20L19 21L20 21L20 20L19 20L19 19L18 19L18 17L17 17L17 16L16 16L16 15L17 15L17 14L18 14L18 15L19 15L19 16L21 16L21 15L22 15L22 16L23 16L23 17L20 17L20 19L21 19L21 20L24 20L24 19L21 19L21 18L23 18L23 17L24 17L24 16L23 16L23 14L24 14L24 13L22 13L22 12L23 12L23 11L24 11L24 12L26 12L26 15L25 15L25 16L26 16L26 17L28 17L28 16L26 16L26 15L27 15L27 13L28 13L28 12L27 12L27 10L26 10L26 11L25 11L25 10L24 10L24 9L22 9L22 10L23 10L23 11L22 11L22 12L21 12L21 11L20 11L20 10L19 10L19 9L18 9L18 8L16 8L16 9L15 9L15 10L16 10L16 9L18 9L18 10L19 10L19 12L18 12L18 13L17 13L17 12L15 12L15 11L13 11L13 9L14 9L14 8L13 8L13 9L11 9L11 8L12 8L12 6L11 6L11 7L10 7L10 6ZM13 6L13 7L14 7L14 6ZM9 9L9 10L8 10L8 11L9 11L9 12L12 12L12 11L10 11L10 9ZM0 10L0 12L1 12L1 10ZM6 10L6 11L7 11L7 10ZM3 12L3 13L4 13L4 14L5 14L5 13L4 13L4 12ZM13 12L13 13L11 13L11 14L14 14L14 15L15 15L15 14L14 14L14 13L15 13L15 12ZM19 12L19 14L22 14L22 13L21 13L21 12ZM0 13L0 14L1 14L1 13ZM16 13L16 14L17 14L17 13ZM0 16L0 18L1 18L1 16ZM3 16L3 18L4 18L4 16ZM15 16L15 17L16 17L16 16ZM6 17L6 18L7 18L7 17ZM16 19L16 20L17 20L17 19ZM0 20L0 21L2 21L2 20ZM21 21L21 24L24 24L24 21ZM9 22L9 23L10 23L10 22ZM22 22L22 23L23 23L23 22ZM25 22L25 25L27 25L27 24L26 24L26 22ZM11 25L11 26L10 26L10 27L12 27L12 25ZM0 0L0 7L7 7L7 0ZM1 1L1 6L6 6L6 1ZM2 2L2 5L5 5L5 2ZM22 0L22 7L29 7L29 0ZM23 1L23 6L28 6L28 1ZM24 2L24 5L27 5L27 2ZM0 22L0 29L7 29L7 22ZM1 23L1 28L6 28L6 23ZM2 24L2 27L5 27L5 24Z" fill="#000000"/></g></g></svg>
