<?xml version="1.0" encoding="UTF-8"?>
<svg xmlns="http://www.w3.org/2000/svg" version="1.1" width="200" height="200" viewBox="0 0 200 200"><rect x="0" y="0" width="200" height="200" fill="#ffffff"/><g transform="scale(6.452)"><g transform="translate(1,1)"><path fill-rule="evenodd" d="M9 0L9 1L10 1L10 2L8 2L8 4L10 4L10 7L9 7L9 6L8 6L8 7L9 7L9 8L10 8L10 9L12 9L12 8L10 8L10 7L11 7L11 6L12 6L12 7L13 7L13 6L14 6L14 7L15 7L15 6L14 6L14 5L17 5L17 6L16 6L16 8L15 8L15 9L17 9L17 6L18 6L18 7L19 7L19 8L18 8L18 9L19 9L19 8L20 8L20 10L21 10L21 11L22 11L22 10L23 10L23 9L21 9L21 6L20 6L20 5L21 5L21 4L20 4L20 3L21 3L21 1L20 1L20 0L18 0L18 1L16 1L16 0L14 0L14 1L13 1L13 0L12 0L12 2L11 2L11 0ZM14 1L14 2L12 2L12 3L10 3L10 4L12 4L12 6L13 6L13 3L15 3L15 4L18 4L18 5L20 5L20 4L18 4L18 3L20 3L20 1L19 1L19 2L18 2L18 3L16 3L16 1ZM19 6L19 7L20 7L20 6ZM3 8L3 9L0 9L0 11L1 11L1 12L0 12L0 16L2 16L2 17L4 17L4 16L3 16L3 15L1 15L1 14L3 14L3 12L5 12L5 11L10 11L10 12L11 12L11 10L8 10L8 8L6 8L6 9L7 9L7 10L5 10L5 8ZM13 8L13 9L14 9L14 8ZM25 8L25 9L24 9L24 11L23 11L23 12L24 12L24 14L26 14L26 13L28 13L28 14L27 14L27 15L28 15L28 16L27 16L27 17L26 17L26 18L25 18L25 19L26 19L26 20L24 20L24 18L23 18L23 17L25 17L25 16L22 16L22 18L21 18L21 15L20 15L20 14L22 14L22 12L19 12L19 11L15 11L15 10L14 10L14 11L15 11L15 12L17 12L17 13L16 13L16 15L17 15L17 13L18 13L18 12L19 12L19 14L18 14L18 16L19 16L19 15L20 15L20 19L21 19L21 20L20 20L20 22L19 22L19 23L18 23L18 21L19 21L19 20L18 20L18 21L16 21L16 22L15 22L15 20L16 20L16 19L19 19L19 17L17 17L17 16L16 16L16 17L17 17L17 18L16 18L16 19L15 19L15 20L14 20L14 17L15 17L15 13L13 13L13 11L12 11L12 13L13 13L13 14L12 14L12 15L11 15L11 14L10 14L10 15L8 15L8 14L9 14L9 12L8 12L8 14L4 14L4 15L7 15L7 16L5 16L5 17L7 17L7 18L6 18L6 19L5 19L5 18L4 18L4 21L8 21L8 23L9 23L9 24L8 24L8 26L12 26L12 25L14 25L14 26L13 26L13 27L12 27L12 29L13 29L13 27L14 27L14 26L15 26L15 25L14 25L14 24L16 24L16 23L18 23L18 24L17 24L17 25L18 25L18 26L17 26L17 27L15 27L15 29L16 29L16 28L18 28L18 29L19 29L19 28L20 28L20 29L21 29L21 27L22 27L22 28L23 28L23 29L25 29L25 27L26 27L26 29L28 29L28 28L27 28L27 27L29 27L29 26L27 26L27 25L25 25L25 21L26 21L26 22L27 22L27 23L26 23L26 24L29 24L29 22L28 22L28 20L29 20L29 15L28 15L28 14L29 14L29 13L28 13L28 12L29 12L29 11L28 11L28 10L29 10L29 9L27 9L27 8ZM26 9L26 10L27 10L27 9ZM2 10L2 11L3 11L3 10ZM25 11L25 12L28 12L28 11ZM6 12L6 13L7 13L7 12ZM13 14L13 15L12 15L12 16L11 16L11 15L10 15L10 18L9 18L9 17L8 17L8 18L9 18L9 19L8 19L8 21L9 21L9 22L12 22L12 20L11 20L11 19L13 19L13 18L11 18L11 17L12 17L12 16L13 16L13 17L14 17L14 16L13 16L13 15L14 15L14 14ZM0 17L0 21L2 21L2 20L3 20L3 18L1 18L1 17ZM10 18L10 19L9 19L9 20L10 20L10 19L11 19L11 18ZM27 18L27 19L28 19L28 18ZM6 19L6 20L7 20L7 19ZM26 20L26 21L27 21L27 20ZM13 21L13 22L14 22L14 21ZM21 21L21 24L24 24L24 21ZM22 22L22 23L23 23L23 22ZM12 23L12 24L9 24L9 25L12 25L12 24L14 24L14 23ZM18 24L18 25L20 25L20 26L18 26L18 28L19 28L19 27L21 27L21 25L20 25L20 24ZM24 25L24 26L25 26L25 25ZM22 26L22 27L23 27L23 26ZM26 26L26 27L27 27L27 26ZM9 27L9 28L10 28L10 29L11 29L11 27ZM0 0L0 7L7 7L7 0ZM1 1L1 6L6 6L6 1ZM2 2L2 5L5 5L5 2ZM22 0L22 7L29 7L29 0ZM23 1L23 6L28 6L28 1ZM24 2L24 5L27 5L27 2ZM0 22L0 29L7 29L7 22ZM1 23L1 28L6 28L6 23ZM2 24L2 27L5 27L5 24Z" fill="#000000"/></g></g></svg>
