<?xml version="1.0" encoding="UTF-8"?>
<svg xmlns="http://www.w3.org/2000/svg" version="1.1" width="200" height="200" viewBox="0 0 200 200"><rect x="0" y="0" width="200" height="200" fill="#ffffff"/><g transform="scale(6.452)"><g transform="translate(1,1)"><path fill-rule="evenodd" d="M8 0L8 2L9 2L9 3L8 3L8 7L9 7L9 5L10 5L10 8L9 8L9 9L8 9L8 12L5 12L5 11L7 11L7 10L4 10L4 12L5 12L5 13L7 13L7 14L6 14L6 15L4 15L4 14L3 14L3 12L1 12L1 10L2 10L2 11L3 11L3 9L4 9L4 8L3 8L3 9L1 9L1 10L0 10L0 12L1 12L1 13L2 13L2 14L1 14L1 15L2 15L2 16L1 16L1 17L2 17L2 18L3 18L3 17L4 17L4 18L5 18L5 17L4 17L4 16L6 16L6 17L7 17L7 18L6 18L6 19L5 19L5 20L6 20L6 21L8 21L8 22L9 22L9 23L10 23L10 24L9 24L9 25L8 25L8 26L9 26L9 27L10 27L10 29L14 29L14 28L16 28L16 29L18 29L18 28L16 28L16 27L18 27L18 26L19 26L19 27L20 27L20 26L21 26L21 25L24 25L24 27L25 27L25 28L24 28L24 29L27 29L27 28L29 28L29 25L27 25L27 26L28 26L28 27L27 27L27 28L26 28L26 27L25 27L25 25L26 25L26 21L25 21L25 20L27 20L27 19L29 19L29 18L25 18L25 17L26 17L26 16L27 16L27 17L28 17L28 16L29 16L29 14L28 14L28 13L26 13L26 14L25 14L25 15L24 15L24 13L25 13L25 12L26 12L26 10L27 10L27 9L29 9L29 8L27 8L27 9L26 9L26 8L23 8L23 11L20 11L20 9L21 9L21 8L19 8L19 6L18 6L18 7L17 7L17 4L18 4L18 5L20 5L20 7L21 7L21 2L20 2L20 1L19 1L19 0L15 0L15 2L14 2L14 3L13 3L13 4L15 4L15 5L11 5L11 2L12 2L12 1L14 1L14 0L11 0L11 2L10 2L10 0ZM16 1L16 2L17 2L17 3L15 3L15 4L17 4L17 3L19 3L19 4L20 4L20 3L19 3L19 1ZM11 6L11 9L10 9L10 10L9 10L9 11L11 11L11 12L8 12L8 13L9 13L9 15L8 15L8 14L7 14L7 15L6 15L6 16L8 16L8 17L9 17L9 19L8 19L8 18L7 18L7 19L6 19L6 20L7 20L7 19L8 19L8 20L9 20L9 21L10 21L10 20L9 20L9 19L10 19L10 15L11 15L11 18L12 18L12 15L13 15L13 19L14 19L14 18L15 18L15 19L16 19L16 21L15 21L15 20L13 20L13 21L14 21L14 22L13 22L13 23L12 23L12 24L13 24L13 25L11 25L11 24L10 24L10 25L9 25L9 26L10 26L10 27L12 27L12 28L14 28L14 27L15 27L15 26L14 26L14 24L16 24L16 26L18 26L18 25L17 25L17 24L18 24L18 22L19 22L19 24L20 24L20 22L19 22L19 20L18 20L18 21L17 21L17 19L19 19L19 18L18 18L18 17L19 17L19 16L18 16L18 15L20 15L20 16L21 16L21 14L22 14L22 15L23 15L23 14L22 14L22 13L23 13L23 12L25 12L25 11L23 11L23 12L21 12L21 13L20 13L20 12L19 12L19 10L17 10L17 7L16 7L16 6L15 6L15 7L14 7L14 6L13 6L13 7L12 7L12 6ZM15 7L15 8L13 8L13 10L14 10L14 9L15 9L15 8L16 8L16 7ZM6 8L6 9L7 9L7 8ZM11 9L11 11L12 11L12 12L11 12L11 13L10 13L10 14L11 14L11 15L12 15L12 14L11 14L11 13L12 13L12 12L14 12L14 11L12 11L12 9ZM24 9L24 10L25 10L25 9ZM15 10L15 12L16 12L16 11L17 11L17 10ZM27 11L27 12L28 12L28 11ZM13 13L13 15L14 15L14 16L15 16L15 18L16 18L16 19L17 19L17 16L16 16L16 14L17 14L17 13ZM18 13L18 14L19 14L19 13ZM26 14L26 15L27 15L27 14ZM3 15L3 16L2 16L2 17L3 17L3 16L4 16L4 15ZM23 16L23 17L22 17L22 18L21 18L21 17L20 17L20 18L21 18L21 20L24 20L24 19L25 19L25 18L23 18L23 17L24 17L24 16ZM0 18L0 19L1 19L1 18ZM22 18L22 19L23 19L23 18ZM2 19L2 21L4 21L4 19ZM11 19L11 20L12 20L12 19ZM0 20L0 21L1 21L1 20ZM21 21L21 24L24 24L24 21ZM10 22L10 23L11 23L11 22ZM15 22L15 23L17 23L17 22ZM22 22L22 23L23 23L23 22ZM27 22L27 24L28 24L28 22ZM10 25L10 26L11 26L11 25ZM19 25L19 26L20 26L20 25ZM21 27L21 28L19 28L19 29L22 29L22 27ZM0 0L0 7L7 7L7 0ZM1 1L1 6L6 6L6 1ZM2 2L2 5L5 5L5 2ZM22 0L22 7L29 7L29 0ZM23 1L23 6L28 6L28 1ZM24 2L24 5L27 5L27 2ZM0 22L0 29L7 29L7 22ZM1 23L1 28L6 28L6 23ZM2 24L2 27L5 27L5 24Z" fill="#000000"/></g></g></svg>
