<?xml version="1.0" encoding="UTF-8"?>
<svg xmlns="http://www.w3.org/2000/svg" version="1.1" width="200" height="200" viewBox="0 0 200 200"><rect x="0" y="0" width="200" height="200" fill="#ffffff"/><g transform="scale(6.452)"><g transform="translate(1,1)"><path fill-rule="evenodd" d="M8 0L8 3L9 3L9 5L8 5L8 9L9 9L9 10L8 10L8 11L9 11L9 13L10 13L10 14L5 14L5 16L6 16L6 17L4 17L4 12L0 12L0 15L2 15L2 13L3 13L3 16L2 16L2 20L3 20L3 19L4 19L4 18L5 18L5 19L7 19L7 20L4 20L4 21L8 21L8 22L9 22L9 23L12 23L12 22L10 22L10 21L8 21L8 19L9 19L9 20L11 20L11 21L13 21L13 22L14 22L14 23L13 23L13 24L10 24L10 26L11 26L11 25L12 25L12 26L13 26L13 27L12 27L12 28L11 28L11 27L10 27L10 28L9 28L9 29L10 29L10 28L11 28L11 29L13 29L13 28L14 28L14 29L15 29L15 27L14 27L14 26L15 26L15 25L16 25L16 26L17 26L17 28L16 28L16 29L17 29L17 28L18 28L18 29L19 29L19 28L20 28L20 26L21 26L21 28L22 28L22 27L23 27L23 28L24 28L24 29L25 29L25 26L24 26L24 25L27 25L27 29L28 29L28 28L29 28L29 27L28 27L28 25L27 25L27 24L29 24L29 19L28 19L28 20L27 20L27 19L25 19L25 20L24 20L24 19L22 19L22 17L23 17L23 18L24 18L24 17L25 17L25 18L27 18L27 17L29 17L29 16L28 16L28 15L29 15L29 14L28 14L28 15L26 15L26 14L27 14L27 13L29 13L29 12L28 12L28 10L25 10L25 9L24 9L24 8L18 8L18 9L24 9L24 10L23 10L23 11L22 11L22 10L20 10L20 11L21 11L21 13L24 13L24 14L25 14L25 15L26 15L26 17L25 17L25 16L24 16L24 17L23 17L23 14L22 14L22 15L21 15L21 16L22 16L22 17L20 17L20 18L19 18L19 17L18 17L18 16L19 16L19 15L17 15L17 14L19 14L19 13L17 13L17 12L18 12L18 11L19 11L19 10L17 10L17 9L16 9L16 10L15 10L15 6L16 6L16 7L17 7L17 6L16 6L16 4L17 4L17 3L18 3L18 7L19 7L19 6L20 6L20 7L21 7L21 6L20 6L20 5L19 5L19 4L21 4L21 2L20 2L20 1L21 1L21 0L20 0L20 1L19 1L19 0L17 0L17 3L16 3L16 2L15 2L15 1L16 1L16 0L13 0L13 1L12 1L12 0L11 0L11 1L12 1L12 2L13 2L13 3L12 3L12 5L10 5L10 4L11 4L11 2L10 2L10 3L9 3L9 1L10 1L10 0ZM13 1L13 2L14 2L14 1ZM18 2L18 3L19 3L19 2ZM13 3L13 5L14 5L14 4L15 4L15 3ZM9 6L9 9L10 9L10 12L11 12L11 10L12 10L12 11L13 11L13 10L12 10L12 9L13 9L13 8L14 8L14 6L13 6L13 7L12 7L12 6L11 6L11 7L10 7L10 6ZM2 8L2 10L3 10L3 11L4 11L4 10L5 10L5 12L6 12L6 13L7 13L7 12L6 12L6 11L7 11L7 10L5 10L5 8ZM6 8L6 9L7 9L7 8ZM11 8L11 9L12 9L12 8ZM26 8L26 9L29 9L29 8ZM3 9L3 10L4 10L4 9ZM14 10L14 11L15 11L15 12L14 12L14 13L13 13L13 12L12 12L12 13L11 13L11 14L14 14L14 15L15 15L15 16L14 16L14 18L13 18L13 19L11 19L11 20L13 20L13 21L16 21L16 23L17 23L17 25L18 25L18 28L19 28L19 26L20 26L20 25L19 25L19 23L17 23L17 21L16 21L16 20L14 20L14 19L16 19L16 18L17 18L17 17L16 17L16 18L15 18L15 16L16 16L16 14L17 14L17 13L16 13L16 11L17 11L17 10L16 10L16 11L15 11L15 10ZM23 11L23 12L24 12L24 11ZM25 11L25 12L26 12L26 13L25 13L25 14L26 14L26 13L27 13L27 11ZM14 13L14 14L15 14L15 13ZM6 15L6 16L7 16L7 17L6 17L6 18L9 18L9 17L10 17L10 18L11 18L11 17L13 17L13 15L12 15L12 16L11 16L11 15L10 15L10 16L9 16L9 17L8 17L8 16L7 16L7 15ZM0 17L0 21L1 21L1 17ZM20 18L20 19L21 19L21 20L22 20L22 19L21 19L21 18ZM17 19L17 20L18 20L18 19ZM25 20L25 24L26 24L26 22L28 22L28 21L27 21L27 20ZM19 21L19 22L20 22L20 21ZM21 21L21 24L24 24L24 21ZM22 22L22 23L23 23L23 22ZM14 23L14 24L13 24L13 25L15 25L15 23ZM8 24L8 27L9 27L9 24ZM21 25L21 26L22 26L22 25ZM0 0L0 7L7 7L7 0ZM1 1L1 6L6 6L6 1ZM2 2L2 5L5 5L5 2ZM22 0L22 7L29 7L29 0ZM23 1L23 6L28 6L28 1ZM24 2L24 5L27 5L27 2ZM0 22L0 29L7 29L7 22ZM1 23L1 28L6 28L6 23ZM2 24L2 27L5 27L5 24Z" fill="#000000"/></g></g></svg>
