<?xml version="1.0" encoding="UTF-8"?>
<svg xmlns="http://www.w3.org/2000/svg" version="1.1" width="200" height="200" viewBox="0 0 200 200"><rect x="0" y="0" width="200" height="200" fill="#ffffff"/><g transform="scale(6.452)"><g transform="translate(1,1)"><path fill-rule="evenodd" d="M8 0L8 1L9 1L9 3L8 3L8 4L9 4L9 6L8 6L8 7L9 7L9 6L10 6L10 7L11 7L11 6L10 6L10 4L11 4L11 3L13 3L13 5L12 5L12 7L13 7L13 8L18 8L18 9L17 9L17 10L20 10L20 7L21 7L21 6L20 6L20 7L19 7L19 6L18 6L18 5L19 5L19 3L20 3L20 5L21 5L21 3L20 3L20 2L19 2L19 3L18 3L18 2L17 2L17 4L18 4L18 5L16 5L16 4L15 4L15 3L16 3L16 1L19 1L19 0L12 0L12 1L10 1L10 0ZM14 1L14 2L13 2L13 3L15 3L15 1ZM14 4L14 5L15 5L15 4ZM13 6L13 7L14 7L14 6ZM15 6L15 7L16 7L16 6ZM17 6L17 7L18 7L18 6ZM2 8L2 9L1 9L1 10L0 10L0 12L1 12L1 14L0 14L0 17L1 17L1 18L0 18L0 19L1 19L1 20L0 20L0 21L1 21L1 20L3 20L3 21L4 21L4 20L5 20L5 21L7 21L7 20L8 20L8 18L9 18L9 17L10 17L10 16L8 16L8 17L7 17L7 16L6 16L6 17L7 17L7 18L6 18L6 19L1 19L1 18L2 18L2 17L1 17L1 15L2 15L2 16L3 16L3 18L5 18L5 15L4 15L4 14L5 14L5 13L7 13L7 12L8 12L8 11L7 11L7 10L10 10L10 11L9 11L9 12L11 12L11 13L12 13L12 10L11 10L11 9L12 9L12 8L11 8L11 9L9 9L9 8L8 8L8 9L7 9L7 8L4 8L4 9L3 9L3 8ZM21 8L21 9L22 9L22 8ZM25 8L25 10L24 10L24 9L23 9L23 10L22 10L22 11L21 11L21 12L20 12L20 11L19 11L19 12L20 12L20 13L18 13L18 14L17 14L17 15L19 15L19 16L18 16L18 17L17 17L17 16L16 16L16 13L13 13L13 14L14 14L14 15L15 15L15 17L14 17L14 21L16 21L16 20L19 20L19 23L18 23L18 21L17 21L17 24L19 24L19 25L18 25L18 26L19 26L19 27L21 27L21 28L20 28L20 29L23 29L23 28L22 28L22 27L21 27L21 25L22 25L22 26L23 26L23 27L25 27L25 28L24 28L24 29L25 29L25 28L26 28L26 29L27 29L27 28L28 28L28 29L29 29L29 26L28 26L28 25L29 25L29 23L25 23L25 22L26 22L26 21L27 21L27 19L28 19L28 20L29 20L29 18L26 18L26 19L24 19L24 20L23 20L23 18L22 18L22 16L24 16L24 18L25 18L25 16L27 16L27 17L29 17L29 16L27 16L27 12L28 12L28 11L29 11L29 10L28 10L28 11L27 11L27 9L26 9L26 8ZM28 8L28 9L29 9L29 8ZM4 9L4 11L3 11L3 10L2 10L2 11L1 11L1 12L3 12L3 14L2 14L2 15L3 15L3 16L4 16L4 15L3 15L3 14L4 14L4 13L5 13L5 12L4 12L4 11L5 11L5 10L7 10L7 9ZM13 9L13 12L15 12L15 11L16 11L16 12L18 12L18 11L16 11L16 9L15 9L15 11L14 11L14 9ZM25 10L25 11L24 11L24 12L25 12L25 13L24 13L24 14L23 14L23 12L21 12L21 13L20 13L20 14L19 14L19 15L20 15L20 16L19 16L19 17L20 17L20 16L21 16L21 15L20 15L20 14L22 14L22 15L25 15L25 13L26 13L26 10ZM6 11L6 12L7 12L7 11ZM8 13L8 14L9 14L9 13ZM28 13L28 14L29 14L29 13ZM6 14L6 15L7 15L7 14ZM10 14L10 15L11 15L11 14ZM12 15L12 16L13 16L13 15ZM11 17L11 18L10 18L10 19L9 19L9 20L10 20L10 21L8 21L8 22L9 22L9 23L8 23L8 25L10 25L10 24L9 24L9 23L13 23L13 19L12 19L12 18L13 18L13 17ZM15 17L15 18L17 18L17 19L19 19L19 20L20 20L20 19L19 19L19 18L17 18L17 17ZM21 18L21 20L22 20L22 18ZM6 19L6 20L7 20L7 19ZM10 19L10 20L12 20L12 19ZM25 20L25 21L26 21L26 20ZM21 21L21 24L24 24L24 21ZM28 21L28 22L29 22L29 21ZM14 22L14 24L11 24L11 25L12 25L12 26L11 26L11 27L10 27L10 26L8 26L8 27L10 27L10 28L12 28L12 29L13 29L13 28L12 28L12 27L13 27L13 26L14 26L14 28L15 28L15 29L16 29L16 27L15 27L15 26L16 26L16 24L15 24L15 23L16 23L16 22ZM22 22L22 23L23 23L23 22ZM19 23L19 24L20 24L20 23ZM14 24L14 26L15 26L15 24ZM26 24L26 26L25 26L25 27L26 27L26 28L27 28L27 27L28 27L28 26L27 26L27 25L28 25L28 24ZM23 25L23 26L24 26L24 25ZM26 26L26 27L27 27L27 26ZM17 28L17 29L18 29L18 28ZM0 0L0 7L7 7L7 0ZM1 1L1 6L6 6L6 1ZM2 2L2 5L5 5L5 2ZM22 0L22 7L29 7L29 0ZM23 1L23 6L28 6L28 1ZM24 2L24 5L27 5L27 2ZM0 22L0 29L7 29L7 22ZM1 23L1 28L6 28L6 23ZM2 24L2 27L5 27L5 24Z" fill="#000000"/></g></g></svg>
