<?xml version="1.0" encoding="UTF-8"?>
<svg xmlns="http://www.w3.org/2000/svg" version="1.1" width="200" height="200" viewBox="0 0 200 200"><rect x="0" y="0" width="200" height="200" fill="#ffffff"/><g transform="scale(6.452)"><g transform="translate(1,1)"><path fill-rule="evenodd" d="M9 0L9 1L8 1L8 2L9 2L9 3L10 3L10 0ZM11 0L11 4L12 4L12 7L13 7L13 9L14 9L14 11L13 11L13 12L12 12L12 11L11 11L11 12L10 12L10 10L12 10L12 8L11 8L11 6L10 6L10 7L9 7L9 5L8 5L8 8L4 8L4 9L2 9L2 10L4 10L4 11L3 11L3 12L1 12L1 10L0 10L0 12L1 12L1 13L3 13L3 14L1 14L1 15L0 15L0 16L1 16L1 17L0 17L0 18L1 18L1 17L3 17L3 15L4 15L4 18L5 18L5 19L3 19L3 18L2 18L2 19L3 19L3 21L4 21L4 20L5 20L5 21L8 21L8 25L9 25L9 26L10 26L10 28L9 28L9 29L10 29L10 28L12 28L12 29L14 29L14 28L15 28L15 29L16 29L16 28L17 28L17 27L19 27L19 29L22 29L22 28L23 28L23 27L22 27L22 26L24 26L24 25L25 25L25 26L27 26L27 28L24 28L24 29L27 29L27 28L28 28L28 27L29 27L29 26L27 26L27 25L29 25L29 24L28 24L28 23L29 23L29 20L28 20L28 21L27 21L27 19L26 19L26 20L25 20L25 18L26 18L26 16L28 16L28 17L27 17L27 18L28 18L28 19L29 19L29 18L28 18L28 17L29 17L29 15L26 15L26 13L25 13L25 12L26 12L26 11L27 11L27 12L28 12L28 13L27 13L27 14L29 14L29 10L28 10L28 8L27 8L27 10L25 10L25 9L24 9L24 8L22 8L22 9L19 9L19 5L20 5L20 7L21 7L21 1L20 1L20 0L16 0L16 1L12 1L12 0ZM16 1L16 3L15 3L15 2L12 2L12 3L15 3L15 4L16 4L16 5L15 5L15 7L14 7L14 6L13 6L13 7L14 7L14 8L16 8L16 6L17 6L17 7L18 7L18 5L19 5L19 4L16 4L16 3L18 3L18 2L17 2L17 1ZM19 1L19 2L20 2L20 1ZM8 8L8 10L10 10L10 9L9 9L9 8ZM17 8L17 9L16 9L16 11L17 11L17 13L19 13L19 12L21 12L21 13L22 13L22 14L19 14L19 15L18 15L18 14L17 14L17 15L18 15L18 16L21 16L21 15L22 15L22 16L23 16L23 17L20 17L20 19L21 19L21 20L24 20L24 19L21 19L21 18L23 18L23 17L24 17L24 18L25 18L25 17L24 17L24 16L23 16L23 14L24 14L24 13L22 13L22 12L23 12L23 11L24 11L24 12L25 12L25 10L24 10L24 9L22 9L22 10L23 10L23 11L22 11L22 12L21 12L21 11L20 11L20 10L19 10L19 9L18 9L18 8ZM5 9L5 10L7 10L7 9ZM17 10L17 11L18 11L18 12L19 12L19 11L18 11L18 10ZM4 11L4 15L5 15L5 16L7 16L7 17L6 17L6 18L7 18L7 19L5 19L5 20L8 20L8 21L9 21L9 22L10 22L10 24L12 24L12 26L11 26L11 27L12 27L12 26L13 26L13 25L14 25L14 27L13 27L13 28L14 28L14 27L15 27L15 26L16 26L16 27L17 27L17 26L19 26L19 25L20 25L20 28L21 28L21 25L20 25L20 24L18 24L18 25L17 25L17 24L15 24L15 25L14 25L14 22L15 22L15 23L16 23L16 22L18 22L18 23L19 23L19 21L20 21L20 20L19 20L19 19L18 19L18 18L19 18L19 17L18 17L18 18L16 18L16 19L15 19L15 20L14 20L14 21L13 21L13 23L11 23L11 22L12 22L12 18L13 18L13 19L14 19L14 16L13 16L13 17L12 17L12 18L10 18L10 17L8 17L8 16L7 16L7 15L5 15L5 13L6 13L6 14L7 14L7 13L8 13L8 15L11 15L11 16L12 16L12 14L9 14L9 12L8 12L8 11L6 11L6 12L5 12L5 11ZM14 11L14 12L15 12L15 11ZM6 12L6 13L7 13L7 12ZM11 12L11 13L12 13L12 12ZM13 13L13 14L14 14L14 15L15 15L15 17L17 17L17 16L16 16L16 14L14 14L14 13ZM25 15L25 16L26 16L26 15ZM8 18L8 20L9 20L9 18ZM16 19L16 21L15 21L15 22L16 22L16 21L18 21L18 19ZM0 20L0 21L2 21L2 20ZM10 20L10 21L11 21L11 20ZM21 21L21 24L24 24L24 21ZM22 22L22 23L23 23L23 22ZM25 22L25 25L27 25L27 24L26 24L26 22ZM27 22L27 23L28 23L28 22ZM16 25L16 26L17 26L17 25ZM0 0L0 7L7 7L7 0ZM1 1L1 6L6 6L6 1ZM2 2L2 5L5 5L5 2ZM22 0L22 7L29 7L29 0ZM23 1L23 6L28 6L28 1ZM24 2L24 5L27 5L27 2ZM0 22L0 29L7 29L7 22ZM1 23L1 28L6 28L6 23ZM2 24L2 27L5 27L5 24Z" fill="#000000"/></g></g></svg>
