<?xml version="1.0" encoding="UTF-8"?>
<svg xmlns="http://www.w3.org/2000/svg" version="1.1" width="200" height="200" viewBox="0 0 200 200"><rect x="0" y="0" width="200" height="200" fill="#ffffff"/><g transform="scale(6.452)"><g transform="translate(1,1)"><path fill-rule="evenodd" d="M8 0L8 1L9 1L9 0ZM10 0L10 2L11 2L11 3L9 3L9 2L8 2L8 3L9 3L9 4L8 4L8 5L9 5L9 6L8 6L8 8L9 8L9 10L6 10L6 9L7 9L7 8L5 8L5 9L0 9L0 11L1 11L1 13L2 13L2 14L0 14L0 15L1 15L1 16L0 16L0 21L1 21L1 19L3 19L3 20L2 20L2 21L3 21L3 20L4 20L4 21L5 21L5 20L6 20L6 21L7 21L7 20L9 20L9 21L8 21L8 22L9 22L9 23L8 23L8 24L9 24L9 23L10 23L10 26L9 26L9 27L10 27L10 26L11 26L11 24L12 24L12 23L14 23L14 22L12 22L12 23L10 23L10 22L9 22L9 21L11 21L11 20L12 20L12 21L14 21L14 20L18 20L18 21L20 21L20 22L18 22L18 23L17 23L17 22L16 22L16 23L15 23L15 25L16 25L16 26L14 26L14 25L12 25L12 27L11 27L11 28L9 28L9 29L11 29L11 28L12 28L12 29L13 29L13 28L14 28L14 29L16 29L16 28L15 28L15 27L18 27L18 28L17 28L17 29L19 29L19 28L21 28L21 27L22 27L22 28L24 28L24 29L25 29L25 26L24 26L24 25L25 25L25 20L24 20L24 17L25 17L25 19L27 19L27 21L26 21L26 24L27 24L27 25L28 25L28 24L29 24L29 23L27 23L27 21L29 21L29 18L28 18L28 16L29 16L29 13L28 13L28 12L27 12L27 11L28 11L28 10L29 10L29 8L28 8L28 9L27 9L27 8L26 8L26 11L25 11L25 8L24 8L24 10L23 10L23 8L22 8L22 9L21 9L21 8L18 8L18 9L17 9L17 4L18 4L18 7L19 7L19 6L20 6L20 7L21 7L21 6L20 6L20 5L19 5L19 4L20 4L20 3L21 3L21 2L20 2L20 0L18 0L18 1L17 1L17 0L16 0L16 1L13 1L13 0L12 0L12 1L11 1L11 0ZM16 1L16 3L14 3L14 4L13 4L13 5L11 5L11 4L12 4L12 3L11 3L11 4L9 4L9 5L10 5L10 6L9 6L9 8L10 8L10 9L11 9L11 7L12 7L12 10L10 10L10 11L9 11L9 12L8 12L8 13L6 13L6 14L3 14L3 15L2 15L2 16L4 16L4 17L3 17L3 18L4 18L4 20L5 20L5 19L6 19L6 20L7 20L7 19L9 19L9 20L10 20L10 18L12 18L12 19L13 19L13 18L14 18L14 17L15 17L15 16L16 16L16 15L17 15L17 16L18 16L18 15L19 15L19 18L18 18L18 20L19 20L19 19L20 19L20 17L21 17L21 18L23 18L23 17L24 17L24 16L25 16L25 17L26 17L26 18L27 18L27 19L28 19L28 18L27 18L27 17L26 17L26 16L27 16L27 14L28 14L28 13L27 13L27 12L26 12L26 13L25 13L25 14L24 14L24 11L23 11L23 10L22 10L22 11L20 11L20 9L18 9L18 10L17 10L17 9L16 9L16 10L17 10L17 11L16 11L16 12L17 12L17 13L16 13L16 14L15 14L15 12L14 12L14 14L13 14L13 15L12 15L12 14L11 14L11 15L10 15L10 12L11 12L11 13L12 13L12 12L13 12L13 11L14 11L14 10L13 10L13 8L14 8L14 9L15 9L15 8L16 8L16 5L14 5L14 4L16 4L16 3L17 3L17 1ZM18 2L18 3L19 3L19 2ZM10 6L10 7L11 7L11 6ZM12 6L12 7L13 7L13 6ZM14 6L14 8L15 8L15 6ZM4 10L4 11L3 11L3 12L2 12L2 13L4 13L4 12L7 12L7 11L6 11L6 10ZM18 10L18 11L17 11L17 12L19 12L19 13L17 13L17 15L18 15L18 14L19 14L19 13L21 13L21 14L22 14L22 15L23 15L23 14L22 14L22 12L23 12L23 11L22 11L22 12L19 12L19 10ZM26 13L26 14L25 14L25 15L26 15L26 14L27 14L27 13ZM6 14L6 15L7 15L7 14ZM8 14L8 15L9 15L9 14ZM11 15L11 16L12 16L12 15ZM20 15L20 16L21 16L21 15ZM6 16L6 17L4 17L4 18L6 18L6 19L7 19L7 18L6 18L6 17L8 17L8 18L10 18L10 17L9 17L9 16ZM13 16L13 17L12 17L12 18L13 18L13 17L14 17L14 16ZM22 16L22 17L23 17L23 16ZM16 18L16 19L17 19L17 18ZM21 21L21 24L24 24L24 21ZM22 22L22 23L23 23L23 22ZM16 23L16 25L19 25L19 26L18 26L18 27L19 27L19 26L20 26L20 27L21 27L21 26L20 26L20 24L17 24L17 23ZM27 26L27 27L26 27L26 28L27 28L27 29L28 29L28 28L27 28L27 27L28 27L28 26ZM0 0L0 7L7 7L7 0ZM1 1L1 6L6 6L6 1ZM2 2L2 5L5 5L5 2ZM22 0L22 7L29 7L29 0ZM23 1L23 6L28 6L28 1ZM24 2L24 5L27 5L27 2ZM0 22L0 29L7 29L7 22ZM1 23L1 28L6 28L6 23ZM2 24L2 27L5 27L5 24Z" fill="#000000"/></g></g></svg>
