<?xml version="1.0" encoding="UTF-8"?>
<svg xmlns="http://www.w3.org/2000/svg" version="1.1" width="200" height="200" viewBox="0 0 200 200"><rect x="0" y="0" width="200" height="200" fill="#ffffff"/><g transform="scale(6.452)"><g transform="translate(1,1)"><path fill-rule="evenodd" d="M9 0L9 1L10 1L10 2L8 2L8 4L9 4L9 5L10 5L10 7L9 7L9 6L8 6L8 7L9 7L9 9L10 9L10 10L9 10L9 11L7 11L7 10L8 10L8 8L6 8L6 9L5 9L5 8L3 8L3 9L2 9L2 10L1 10L1 9L0 9L0 11L1 11L1 12L0 12L0 13L1 13L1 14L3 14L3 12L2 12L2 11L4 11L4 12L5 12L5 11L7 11L7 12L6 12L6 13L8 13L8 14L4 14L4 16L3 16L3 15L2 15L2 17L4 17L4 16L5 16L5 15L7 15L7 16L6 16L6 17L5 17L5 18L3 18L3 19L2 19L2 18L1 18L1 16L0 16L0 21L3 21L3 19L4 19L4 21L7 21L7 20L10 20L10 19L11 19L11 18L12 18L12 20L11 20L11 21L12 21L12 22L10 22L10 23L9 23L9 21L8 21L8 23L9 23L9 24L8 24L8 26L10 26L10 25L9 25L9 24L10 24L10 23L11 23L11 24L12 24L12 25L11 25L11 26L12 26L12 25L14 25L14 26L13 26L13 27L14 27L14 26L15 26L15 29L16 29L16 28L18 28L18 29L19 29L19 28L20 28L20 29L21 29L21 27L22 27L22 28L23 28L23 29L25 29L25 27L26 27L26 29L28 29L28 28L27 28L27 27L29 27L29 26L27 26L27 25L25 25L25 21L26 21L26 22L28 22L28 23L26 23L26 24L28 24L28 23L29 23L29 22L28 22L28 20L29 20L29 16L27 16L27 17L26 17L26 18L25 18L25 20L24 20L24 18L23 18L23 17L25 17L25 16L22 16L22 18L21 18L21 15L20 15L20 14L22 14L22 12L19 12L19 11L17 11L17 10L14 10L14 11L16 11L16 12L17 12L17 13L16 13L16 15L17 15L17 14L18 14L18 16L19 16L19 15L20 15L20 19L21 19L21 20L20 20L20 22L18 22L18 21L19 21L19 20L18 20L18 21L16 21L16 20L17 20L17 19L19 19L19 17L17 17L17 16L16 16L16 17L14 17L14 16L15 16L15 13L14 13L14 16L12 16L12 15L13 15L13 14L12 14L12 15L11 15L11 14L9 14L9 11L10 11L10 12L11 12L11 13L13 13L13 12L11 12L11 9L12 9L12 10L13 10L13 9L12 9L12 8L11 8L11 9L10 9L10 7L11 7L11 6L12 6L12 7L13 7L13 6L12 6L12 4L10 4L10 3L12 3L12 2L14 2L14 1L13 1L13 0L12 0L12 2L11 2L11 0ZM16 0L16 1L15 1L15 3L13 3L13 4L14 4L14 7L15 7L15 5L17 5L17 6L16 6L16 8L15 8L15 9L17 9L17 6L18 6L18 7L19 7L19 8L18 8L18 9L19 9L19 8L20 8L20 10L21 10L21 11L22 11L22 10L23 10L23 9L21 9L21 6L20 6L20 5L21 5L21 4L20 4L20 3L21 3L21 1L20 1L20 0L18 0L18 1L17 1L17 0ZM16 1L16 3L15 3L15 4L18 4L18 5L20 5L20 4L18 4L18 3L20 3L20 1L19 1L19 2L18 2L18 3L17 3L17 1ZM19 6L19 7L20 7L20 6ZM25 8L25 9L24 9L24 11L23 11L23 12L24 12L24 14L26 14L26 13L27 13L27 14L28 14L28 15L29 15L29 13L28 13L28 12L29 12L29 11L28 11L28 10L29 10L29 9L27 9L27 8ZM3 9L3 10L4 10L4 9ZM6 9L6 10L7 10L7 9ZM25 9L25 13L26 13L26 10L27 10L27 9ZM27 11L27 12L28 12L28 11ZM18 12L18 14L19 14L19 12ZM8 14L8 15L9 15L9 14ZM10 15L10 16L9 16L9 17L8 17L8 18L9 18L9 19L10 19L10 18L11 18L11 17L12 17L12 16L11 16L11 15ZM6 17L6 18L5 18L5 19L6 19L6 20L7 20L7 19L6 19L6 18L7 18L7 17ZM9 17L9 18L10 18L10 17ZM14 18L14 20L16 20L16 19L15 19L15 18ZM26 18L26 19L28 19L28 18ZM26 20L26 21L27 21L27 20ZM15 21L15 22L16 22L16 21ZM21 21L21 24L24 24L24 21ZM22 22L22 23L23 23L23 22ZM12 23L12 24L14 24L14 25L16 25L16 26L18 26L18 28L19 28L19 27L21 27L21 25L20 25L20 24L19 24L19 23L16 23L16 24L14 24L14 23ZM16 24L16 25L18 25L18 26L20 26L20 25L18 25L18 24ZM24 25L24 26L25 26L25 25ZM22 26L22 27L23 27L23 26ZM26 26L26 27L27 27L27 26ZM9 27L9 28L10 28L10 29L11 29L11 28L12 28L12 29L13 29L13 28L12 28L12 27ZM0 0L0 7L7 7L7 0ZM1 1L1 6L6 6L6 1ZM2 2L2 5L5 5L5 2ZM22 0L22 7L29 7L29 0ZM23 1L23 6L28 6L28 1ZM24 2L24 5L27 5L27 2ZM0 22L0 29L7 29L7 22ZM1 23L1 28L6 28L6 23ZM2 24L2 27L5 27L5 24Z" fill="#000000"/></g></g></svg>
