<?xml version="1.0" encoding="UTF-8"?>
<svg xmlns="http://www.w3.org/2000/svg" version="1.1" width="200" height="200" viewBox="0 0 200 200"><rect x="0" y="0" width="200" height="200" fill="#ffffff"/><g transform="scale(6.452)"><g transform="translate(1,1)"><path fill-rule="evenodd" d="M8 0L8 1L9 1L9 0ZM11 0L11 1L10 1L10 2L11 2L11 4L8 4L8 5L9 5L9 6L8 6L8 8L9 8L9 6L10 6L10 8L11 8L11 9L10 9L10 10L6 10L6 9L7 9L7 8L5 8L5 9L4 9L4 10L3 10L3 9L2 9L2 10L1 10L1 9L0 9L0 11L1 11L1 12L2 12L2 11L4 11L4 12L3 12L3 13L2 13L2 14L1 14L1 13L0 13L0 14L1 14L1 15L0 15L0 16L1 16L1 17L0 17L0 21L1 21L1 19L2 19L2 21L3 21L3 19L4 19L4 21L7 21L7 20L8 20L8 22L9 22L9 21L10 21L10 20L9 20L9 19L11 19L11 20L12 20L12 21L13 21L13 22L11 22L11 24L10 24L10 25L9 25L9 26L10 26L10 27L9 27L9 29L13 29L13 28L14 28L14 29L15 29L15 28L14 28L14 27L12 27L12 26L13 26L13 25L11 25L11 24L13 24L13 23L14 23L14 22L16 22L16 23L15 23L15 24L14 24L14 26L16 26L16 29L18 29L18 28L21 28L21 27L22 27L22 28L24 28L24 29L25 29L25 26L24 26L24 25L25 25L25 20L26 20L26 19L27 19L27 21L26 21L26 24L28 24L28 25L29 25L29 24L28 24L28 23L29 23L29 18L28 18L28 16L26 16L26 17L27 17L27 18L26 18L26 19L25 19L25 20L24 20L24 17L25 17L25 16L24 16L24 17L23 17L23 16L22 16L22 17L23 17L23 18L21 18L21 17L20 17L20 19L19 19L19 21L18 21L18 22L17 22L17 19L18 19L18 18L17 18L17 19L16 19L16 18L15 18L15 13L16 13L16 12L17 12L17 14L16 14L16 16L17 16L17 17L19 17L19 15L18 15L18 16L17 16L17 14L18 14L18 12L19 12L19 13L21 13L21 14L22 14L22 15L23 15L23 14L22 14L22 12L23 12L23 11L24 11L24 14L25 14L25 15L26 15L26 14L28 14L28 12L27 12L27 11L28 11L28 10L29 10L29 8L28 8L28 9L27 9L27 8L26 8L26 9L27 9L27 11L25 11L25 8L24 8L24 10L23 10L23 8L22 8L22 9L21 9L21 8L18 8L18 9L20 9L20 11L22 11L22 12L19 12L19 11L18 11L18 12L17 12L17 11L16 11L16 9L17 9L17 3L18 3L18 2L19 2L19 4L18 4L18 7L19 7L19 6L20 6L20 7L21 7L21 6L20 6L20 5L19 5L19 4L20 4L20 3L21 3L21 2L20 2L20 0L18 0L18 1L17 1L17 0L16 0L16 1L17 1L17 3L15 3L15 2L14 2L14 3L15 3L15 4L14 4L14 5L13 5L13 6L12 6L12 5L11 5L11 4L13 4L13 3L12 3L12 2L13 2L13 1L12 1L12 0ZM14 0L14 1L15 1L15 0ZM8 2L8 3L9 3L9 2ZM15 4L15 8L14 8L14 9L13 9L13 8L12 8L12 9L11 9L11 10L10 10L10 11L8 11L8 12L7 12L7 11L5 11L5 12L4 12L4 14L3 14L3 15L1 15L1 16L3 16L3 15L4 15L4 14L5 14L5 15L6 15L6 16L7 16L7 17L6 17L6 18L8 18L8 17L9 17L9 16L7 16L7 15L8 15L8 14L7 14L7 13L9 13L9 12L10 12L10 14L9 14L9 15L12 15L12 16L10 16L10 18L11 18L11 19L12 19L12 18L13 18L13 17L14 17L14 16L13 16L13 14L11 14L11 12L12 12L12 13L13 13L13 12L14 12L14 13L15 13L15 12L16 12L16 11L15 11L15 12L14 12L14 11L13 11L13 12L12 12L12 10L15 10L15 8L16 8L16 4ZM11 6L11 7L12 7L12 6ZM13 6L13 7L14 7L14 6ZM22 10L22 11L23 11L23 10ZM10 11L10 12L11 12L11 11ZM6 12L6 13L5 13L5 14L6 14L6 15L7 15L7 14L6 14L6 13L7 13L7 12ZM25 12L25 14L26 14L26 13L27 13L27 12ZM20 15L20 16L21 16L21 15ZM4 16L4 17L2 17L2 19L3 19L3 18L4 18L4 19L5 19L5 20L7 20L7 19L5 19L5 18L4 18L4 17L5 17L5 16ZM27 18L27 19L28 19L28 18ZM15 19L15 20L13 20L13 21L15 21L15 20L16 20L16 19ZM19 21L19 22L20 22L20 21ZM21 21L21 24L24 24L24 21ZM27 21L27 22L28 22L28 21ZM22 22L22 23L23 23L23 22ZM8 23L8 24L9 24L9 23ZM16 23L16 24L15 24L15 25L16 25L16 26L17 26L17 27L19 27L19 26L20 26L20 27L21 27L21 26L20 26L20 24L19 24L19 23ZM16 24L16 25L17 25L17 26L18 26L18 25L19 25L19 24L18 24L18 25L17 25L17 24ZM27 26L27 27L26 27L26 28L27 28L27 29L28 29L28 28L27 28L27 27L28 27L28 26ZM10 27L10 28L12 28L12 27ZM0 0L0 7L7 7L7 0ZM1 1L1 6L6 6L6 1ZM2 2L2 5L5 5L5 2ZM22 0L22 7L29 7L29 0ZM23 1L23 6L28 6L28 1ZM24 2L24 5L27 5L27 2ZM0 22L0 29L7 29L7 22ZM1 23L1 28L6 28L6 23ZM2 24L2 27L5 27L5 24Z" fill="#000000"/></g></g></svg>
