<?xml version="1.0" encoding="UTF-8"?>
<svg xmlns="http://www.w3.org/2000/svg" version="1.1" width="200" height="200" viewBox="0 0 200 200"><rect x="0" y="0" width="200" height="200" fill="#ffffff"/><g transform="scale(6.452)"><g transform="translate(1,1)"><path fill-rule="evenodd" d="M8 0L8 1L9 1L9 2L10 2L10 4L9 4L9 3L8 3L8 4L9 4L9 5L10 5L10 8L8 8L8 10L6 10L6 11L8 11L8 10L10 10L10 9L11 9L11 11L13 11L13 12L12 12L12 13L11 13L11 14L10 14L10 11L9 11L9 12L5 12L5 14L4 14L4 11L3 11L3 14L2 14L2 13L1 13L1 11L2 11L2 9L3 9L3 8L2 8L2 9L1 9L1 10L0 10L0 13L1 13L1 14L2 14L2 15L3 15L3 16L1 16L1 15L0 15L0 17L2 17L2 19L1 19L1 18L0 18L0 19L1 19L1 20L0 20L0 21L1 21L1 20L3 20L3 21L8 21L8 22L10 22L10 24L11 24L11 25L10 25L10 26L8 26L8 27L10 27L10 26L12 26L12 27L13 27L13 28L12 28L12 29L13 29L13 28L15 28L15 29L19 29L19 27L21 27L21 28L20 28L20 29L23 29L23 28L22 28L22 27L21 27L21 25L22 25L22 26L23 26L23 27L25 27L25 28L24 28L24 29L25 29L25 28L26 28L26 29L27 29L27 28L28 28L28 29L29 29L29 26L28 26L28 24L29 24L29 22L28 22L28 23L25 23L25 22L26 22L26 21L27 21L27 19L28 19L28 20L29 20L29 18L27 18L27 17L25 17L25 16L28 16L28 15L29 15L29 13L28 13L28 15L27 15L27 12L28 12L28 11L29 11L29 10L28 10L28 11L27 11L27 9L26 9L26 8L25 8L25 9L26 9L26 10L24 10L24 9L23 9L23 10L22 10L22 11L21 11L21 12L20 12L20 11L19 11L19 12L20 12L20 13L15 13L15 16L14 16L14 18L15 18L15 19L13 19L13 18L12 18L12 21L10 21L10 20L9 20L9 19L11 19L11 18L9 18L9 19L8 19L8 17L10 17L10 16L6 16L6 15L7 15L7 14L6 14L6 13L9 13L9 14L8 14L8 15L11 15L11 14L12 14L12 16L11 16L11 17L12 17L12 16L13 16L13 15L14 15L14 14L13 14L13 13L14 13L14 11L16 11L16 12L18 12L18 10L20 10L20 7L21 7L21 6L20 6L20 7L19 7L19 6L18 6L18 5L15 5L15 4L18 4L18 2L16 2L16 3L15 3L15 1L16 1L16 0L15 0L15 1L14 1L14 0L12 0L12 1L13 1L13 3L12 3L12 2L11 2L11 0L10 0L10 1L9 1L9 0ZM17 0L17 1L19 1L19 0ZM19 2L19 3L20 3L20 5L21 5L21 3L20 3L20 2ZM11 3L11 4L10 4L10 5L13 5L13 4L15 4L15 3L13 3L13 4L12 4L12 3ZM8 6L8 7L9 7L9 6ZM11 6L11 7L12 7L12 6ZM13 6L13 8L15 8L15 9L14 9L14 10L13 10L13 11L14 11L14 10L16 10L16 11L17 11L17 10L16 10L16 9L18 9L18 8L15 8L15 7L16 7L16 6L15 6L15 7L14 7L14 6ZM17 6L17 7L18 7L18 6ZM4 8L4 9L7 9L7 8ZM21 8L21 9L22 9L22 8ZM28 8L28 9L29 9L29 8ZM24 11L24 12L25 12L25 11ZM26 11L26 12L27 12L27 11ZM21 12L21 13L20 13L20 14L18 14L18 15L17 15L17 16L16 16L16 17L15 17L15 18L17 18L17 19L18 19L18 18L17 18L17 16L19 16L19 17L20 17L20 16L21 16L21 15L20 15L20 14L22 14L22 15L25 15L25 13L24 13L24 14L23 14L23 12ZM5 14L5 15L4 15L4 17L5 17L5 15L6 15L6 14ZM19 15L19 16L20 16L20 15ZM22 16L22 18L21 18L21 20L22 20L22 18L23 18L23 20L24 20L24 19L25 19L25 18L24 18L24 16ZM6 17L6 18L7 18L7 17ZM26 18L26 19L27 19L27 18ZM5 19L5 20L8 20L8 19ZM19 19L19 20L20 20L20 19ZM13 20L13 21L12 21L12 22L11 22L11 23L12 23L12 22L13 22L13 24L12 24L12 25L13 25L13 27L14 27L14 26L15 26L15 25L14 25L14 22L15 22L15 24L16 24L16 23L18 23L18 20ZM25 20L25 21L26 21L26 20ZM13 21L13 22L14 22L14 21ZM15 21L15 22L16 22L16 21ZM21 21L21 24L24 24L24 21ZM22 22L22 23L23 23L23 22ZM8 23L8 25L9 25L9 23ZM19 23L19 24L17 24L17 25L18 25L18 27L17 27L17 26L16 26L16 27L15 27L15 28L16 28L16 27L17 27L17 28L18 28L18 27L19 27L19 24L20 24L20 23ZM26 24L26 26L25 26L25 27L26 27L26 28L27 28L27 27L28 27L28 26L27 26L27 24ZM23 25L23 26L24 26L24 25ZM26 26L26 27L27 27L27 26ZM9 28L9 29L10 29L10 28ZM0 0L0 7L7 7L7 0ZM1 1L1 6L6 6L6 1ZM2 2L2 5L5 5L5 2ZM22 0L22 7L29 7L29 0ZM23 1L23 6L28 6L28 1ZM24 2L24 5L27 5L27 2ZM0 22L0 29L7 29L7 22ZM1 23L1 28L6 28L6 23ZM2 24L2 27L5 27L5 24Z" fill="#000000"/></g></g></svg>
