<?xml version="1.0" encoding="UTF-8"?>
<svg xmlns="http://www.w3.org/2000/svg" version="1.1" width="200" height="200" viewBox="0 0 200 200"><rect x="0" y="0" width="200" height="200" fill="#ffffff"/><g transform="scale(6.452)"><g transform="translate(1,1)"><path fill-rule="evenodd" d="M10 0L10 1L9 1L9 2L8 2L8 4L9 4L9 3L10 3L10 5L11 5L11 3L10 3L10 1L11 1L11 2L12 2L12 3L13 3L13 2L12 2L12 0ZM14 0L14 1L15 1L15 4L14 4L14 5L12 5L12 7L11 7L11 6L10 6L10 7L9 7L9 6L8 6L8 7L9 7L9 8L11 8L11 9L14 9L14 10L13 10L13 11L12 11L12 10L10 10L10 9L9 9L9 10L6 10L6 9L8 9L8 8L6 8L6 9L5 9L5 8L3 8L3 10L2 10L2 11L3 11L3 12L2 12L2 13L3 13L3 14L0 14L0 15L4 15L4 16L2 16L2 17L1 17L1 16L0 16L0 21L2 21L2 20L4 20L4 21L5 21L5 19L3 19L3 18L2 18L2 17L5 17L5 18L6 18L6 19L8 19L8 18L6 18L6 17L7 17L7 16L6 16L6 15L7 15L7 14L6 14L6 13L8 13L8 14L9 14L9 15L8 15L8 16L9 16L9 17L10 17L10 18L9 18L9 21L8 21L8 23L9 23L9 24L8 24L8 26L9 26L9 27L10 27L10 28L11 28L11 29L13 29L13 27L14 27L14 28L15 28L15 27L16 27L16 29L19 29L19 28L20 28L20 29L21 29L21 27L22 27L22 28L23 28L23 29L25 29L25 27L26 27L26 29L28 29L28 28L27 28L27 27L29 27L29 26L27 26L27 25L28 25L28 24L29 24L29 23L26 23L26 24L27 24L27 25L25 25L25 21L26 21L26 22L29 22L29 21L28 21L28 20L29 20L29 17L25 17L25 16L22 16L22 18L21 18L21 15L20 15L20 14L22 14L22 12L19 12L19 14L18 14L18 13L17 13L17 12L18 12L18 9L19 9L19 8L20 8L20 10L21 10L21 11L22 11L22 10L23 10L23 9L21 9L21 6L20 6L20 5L21 5L21 4L20 4L20 3L21 3L21 1L20 1L20 0L18 0L18 1L17 1L17 2L16 2L16 1L15 1L15 0ZM19 1L19 2L18 2L18 3L20 3L20 1ZM16 4L16 5L14 5L14 6L13 6L13 7L12 7L12 8L13 8L13 7L14 7L14 9L18 9L18 8L19 8L19 7L20 7L20 6L19 6L19 7L18 7L18 6L17 6L17 7L16 7L16 5L17 5L17 4ZM18 4L18 5L20 5L20 4ZM14 6L14 7L15 7L15 8L16 8L16 7L15 7L15 6ZM25 8L25 9L24 9L24 11L23 11L23 12L24 12L24 14L26 14L26 13L27 13L27 15L28 15L28 12L29 12L29 11L28 11L28 10L29 10L29 9L27 9L27 8ZM4 9L4 10L5 10L5 11L6 11L6 12L4 12L4 14L5 14L5 15L6 15L6 14L5 14L5 13L6 13L6 12L7 12L7 11L6 11L6 10L5 10L5 9ZM25 9L25 11L26 11L26 9ZM14 10L14 11L13 11L13 12L12 12L12 13L13 13L13 14L15 14L15 15L17 15L17 17L19 17L19 18L16 18L16 19L15 19L15 17L16 17L16 16L15 16L15 17L14 17L14 16L13 16L13 15L12 15L12 16L11 16L11 15L10 15L10 16L11 16L11 17L12 17L12 18L10 18L10 20L13 20L13 21L14 21L14 20L16 20L16 19L19 19L19 22L20 22L20 20L21 20L21 19L20 19L20 15L19 15L19 16L18 16L18 14L16 14L16 13L13 13L13 12L16 12L16 11L17 11L17 10L16 10L16 11L15 11L15 10ZM9 11L9 12L8 12L8 13L9 13L9 14L11 14L11 13L9 13L9 12L10 12L10 11ZM27 11L27 12L28 12L28 11ZM5 16L5 17L6 17L6 16ZM12 16L12 17L13 17L13 16ZM23 17L23 18L24 18L24 20L26 20L26 21L27 21L27 19L28 19L28 18L27 18L27 19L25 19L25 17ZM13 18L13 19L14 19L14 18ZM6 20L6 21L7 21L7 20ZM11 21L11 23L10 23L10 22L9 22L9 23L10 23L10 24L9 24L9 26L10 26L10 27L11 27L11 26L12 26L12 27L13 27L13 26L14 26L14 25L16 25L16 27L17 27L17 28L18 28L18 27L21 27L21 25L20 25L20 24L19 24L19 23L18 23L18 21L15 21L15 22L14 22L14 23L13 23L13 22L12 22L12 21ZM21 21L21 24L24 24L24 21ZM22 22L22 23L23 23L23 22ZM14 23L14 24L12 24L12 26L13 26L13 25L14 25L14 24L15 24L15 23ZM16 23L16 24L17 24L17 23ZM19 25L19 26L20 26L20 25ZM24 25L24 26L25 26L25 25ZM17 26L17 27L18 27L18 26ZM22 26L22 27L23 27L23 26ZM26 26L26 27L27 27L27 26ZM0 0L0 7L7 7L7 0ZM1 1L1 6L6 6L6 1ZM2 2L2 5L5 5L5 2ZM22 0L22 7L29 7L29 0ZM23 1L23 6L28 6L28 1ZM24 2L24 5L27 5L27 2ZM0 22L0 29L7 29L7 22ZM1 23L1 28L6 28L6 23ZM2 24L2 27L5 27L5 24Z" fill="#000000"/></g></g></svg>
