<?xml version="1.0" encoding="UTF-8"?>
<svg xmlns="http://www.w3.org/2000/svg" version="1.1" width="200" height="200" viewBox="0 0 200 200"><rect x="0" y="0" width="200" height="200" fill="#ffffff"/><g transform="scale(6.452)"><g transform="translate(1,1)"><path fill-rule="evenodd" d="M8 0L8 1L9 1L9 3L8 3L8 4L9 4L9 3L11 3L11 4L10 4L10 5L11 5L11 6L10 6L10 7L11 7L11 6L12 6L12 8L8 8L8 9L10 9L10 11L9 11L9 13L10 13L10 14L9 14L9 15L7 15L7 14L8 14L8 13L7 13L7 12L6 12L6 11L8 11L8 10L6 10L6 9L7 9L7 8L4 8L4 9L3 9L3 8L2 8L2 10L0 10L0 12L1 12L1 11L2 11L2 13L1 13L1 14L0 14L0 17L1 17L1 14L3 14L3 15L2 15L2 16L3 16L3 17L2 17L2 18L5 18L5 19L7 19L7 18L8 18L8 16L9 16L9 17L11 17L11 18L9 18L9 20L8 20L8 22L9 22L9 20L11 20L11 21L10 21L10 25L9 25L9 23L8 23L8 25L9 25L9 26L8 26L8 27L9 27L9 28L11 28L11 26L10 26L10 25L12 25L12 27L14 27L14 26L13 26L13 25L12 25L12 24L13 24L13 22L15 22L15 23L14 23L14 25L15 25L15 26L16 26L16 25L15 25L15 23L16 23L16 22L17 22L17 25L18 25L18 26L17 26L17 28L16 28L16 27L15 27L15 29L19 29L19 28L18 28L18 26L19 26L19 27L21 27L21 28L20 28L20 29L23 29L23 28L22 28L22 27L21 27L21 25L22 25L22 26L23 26L23 27L25 27L25 28L24 28L24 29L25 29L25 28L26 28L26 29L27 29L27 28L28 28L28 29L29 29L29 26L28 26L28 25L27 25L27 26L26 26L26 24L27 24L27 23L28 23L28 24L29 24L29 22L28 22L28 21L27 21L27 20L26 20L26 19L28 19L28 20L29 20L29 18L27 18L27 17L26 17L26 18L25 18L25 16L29 16L29 14L28 14L28 13L27 13L27 12L28 12L28 11L29 11L29 10L28 10L28 11L26 11L26 8L25 8L25 10L24 10L24 9L23 9L23 10L22 10L22 11L21 11L21 12L20 12L20 11L19 11L19 10L20 10L20 7L21 7L21 6L20 6L20 7L19 7L19 6L18 6L18 5L19 5L19 4L18 4L18 5L14 5L14 4L15 4L15 3L18 3L18 2L16 2L16 1L19 1L19 0L16 0L16 1L15 1L15 0L13 0L13 1L12 1L12 0L11 0L11 1L10 1L10 0ZM11 1L11 3L12 3L12 4L14 4L14 3L15 3L15 2L14 2L14 1L13 1L13 2L14 2L14 3L12 3L12 1ZM19 2L19 3L20 3L20 5L21 5L21 3L20 3L20 2ZM13 5L13 7L14 7L14 5ZM8 6L8 7L9 7L9 6ZM15 6L15 7L16 7L16 6ZM17 6L17 7L18 7L18 6ZM12 8L12 10L13 10L13 11L12 11L12 12L13 12L13 13L11 13L11 17L12 17L12 19L11 19L11 20L12 20L12 19L13 19L13 20L14 20L14 18L13 18L13 17L14 17L14 15L15 15L15 14L17 14L17 13L15 13L15 12L14 12L14 11L15 11L15 10L16 10L16 9L17 9L17 11L16 11L16 12L18 12L18 15L20 15L20 16L18 16L18 17L16 17L16 16L17 16L17 15L16 15L16 16L15 16L15 19L16 19L16 20L17 20L17 21L18 21L18 19L19 19L19 20L20 20L20 19L19 19L19 17L20 17L20 16L21 16L21 15L20 15L20 14L22 14L22 15L25 15L25 13L26 13L26 12L25 12L25 11L24 11L24 12L25 12L25 13L24 13L24 14L23 14L23 12L21 12L21 13L20 13L20 12L19 12L19 11L18 11L18 8L14 8L14 9L13 9L13 8ZM21 8L21 9L22 9L22 8ZM28 8L28 9L29 9L29 8ZM4 9L4 10L5 10L5 11L3 11L3 12L5 12L5 13L3 13L3 14L4 14L4 16L7 16L7 15L5 15L5 14L7 14L7 13L6 13L6 12L5 12L5 11L6 11L6 10L5 10L5 9ZM10 11L10 12L11 12L11 11ZM13 13L13 14L12 14L12 16L13 16L13 14L14 14L14 13ZM19 13L19 14L20 14L20 13ZM27 14L27 15L28 15L28 14ZM22 16L22 18L21 18L21 20L22 20L22 18L23 18L23 20L24 20L24 19L25 19L25 18L24 18L24 16ZM5 17L5 18L7 18L7 17ZM0 18L0 19L1 19L1 20L0 20L0 21L1 21L1 20L2 20L2 21L4 21L4 19L1 19L1 18ZM16 18L16 19L17 19L17 18ZM6 20L6 21L7 21L7 20ZM25 20L25 21L26 21L26 22L25 22L25 23L27 23L27 21L26 21L26 20ZM21 21L21 24L24 24L24 21ZM11 22L11 24L12 24L12 22ZM22 22L22 23L23 23L23 22ZM19 23L19 24L18 24L18 25L19 25L19 24L20 24L20 23ZM23 25L23 26L24 26L24 25ZM9 26L9 27L10 27L10 26ZM25 26L25 27L26 27L26 28L27 28L27 27L28 27L28 26L27 26L27 27L26 27L26 26ZM12 28L12 29L13 29L13 28ZM0 0L0 7L7 7L7 0ZM1 1L1 6L6 6L6 1ZM2 2L2 5L5 5L5 2ZM22 0L22 7L29 7L29 0ZM23 1L23 6L28 6L28 1ZM24 2L24 5L27 5L27 2ZM0 22L0 29L7 29L7 22ZM1 23L1 28L6 28L6 23ZM2 24L2 27L5 27L5 24Z" fill="#000000"/></g></g></svg>
