<?xml version="1.0" encoding="UTF-8"?>
<svg xmlns="http://www.w3.org/2000/svg" version="1.1" width="200" height="200" viewBox="0 0 200 200"><rect x="0" y="0" width="200" height="200" fill="#ffffff"/><g transform="scale(6.452)"><g transform="translate(1,1)"><path fill-rule="evenodd" d="M8 0L8 3L9 3L9 5L8 5L8 10L3 10L3 11L4 11L4 12L2 12L2 10L1 10L1 9L0 9L0 11L1 11L1 13L0 13L0 16L1 16L1 17L0 17L0 21L1 21L1 18L2 18L2 17L3 17L3 18L4 18L4 19L2 19L2 20L4 20L4 21L7 21L7 20L8 20L8 22L9 22L9 23L11 23L11 25L12 25L12 24L13 24L13 22L11 22L11 21L10 21L10 18L11 18L11 19L12 19L12 18L14 18L14 17L12 17L12 18L11 18L11 16L12 16L12 15L11 15L11 14L13 14L13 16L14 16L14 15L15 15L15 16L16 16L16 15L17 15L17 16L18 16L18 17L19 17L19 16L18 16L18 15L19 15L19 14L18 14L18 15L17 15L17 14L16 14L16 13L17 13L17 11L16 11L16 10L13 10L13 9L16 9L16 8L17 8L17 4L16 4L16 3L18 3L18 2L19 2L19 4L18 4L18 7L19 7L19 6L20 6L20 7L21 7L21 6L20 6L20 5L19 5L19 4L21 4L21 2L20 2L20 1L21 1L21 0L20 0L20 1L19 1L19 0L12 0L12 1L11 1L11 0L10 0L10 1L9 1L9 0ZM13 1L13 2L12 2L12 3L11 3L11 2L9 2L9 3L11 3L11 5L12 5L12 6L11 6L11 7L10 7L10 5L9 5L9 9L10 9L10 8L11 8L11 7L12 7L12 6L13 6L13 7L14 7L14 6L15 6L15 7L16 7L16 6L15 6L15 5L16 5L16 4L15 4L15 5L14 5L14 6L13 6L13 4L14 4L14 2L15 2L15 3L16 3L16 2L15 2L15 1ZM12 3L12 4L13 4L13 3ZM2 8L2 9L5 9L5 8ZM6 8L6 9L7 9L7 8ZM12 8L12 9L11 9L11 10L10 10L10 11L11 11L11 10L12 10L12 12L11 12L11 13L9 13L9 14L11 14L11 13L13 13L13 14L14 14L14 11L13 11L13 10L12 10L12 9L13 9L13 8ZM18 8L18 9L24 9L24 10L23 10L23 11L22 11L22 10L20 10L20 11L21 11L21 13L24 13L24 14L25 14L25 15L26 15L26 17L25 17L25 16L24 16L24 17L23 17L23 14L22 14L22 15L21 15L21 16L22 16L22 17L20 17L20 18L19 18L19 21L17 21L17 18L16 18L16 17L15 17L15 18L16 18L16 19L13 19L13 20L12 20L12 21L13 21L13 20L15 20L15 21L17 21L17 22L16 22L16 23L17 23L17 22L18 22L18 23L19 23L19 24L17 24L17 26L18 26L18 25L20 25L20 26L19 26L19 27L17 27L17 28L16 28L16 26L15 26L15 23L14 23L14 26L15 26L15 27L12 27L12 29L13 29L13 28L14 28L14 29L18 29L18 28L20 28L20 26L21 26L21 28L22 28L22 27L23 27L23 28L24 28L24 29L25 29L25 26L24 26L24 25L27 25L27 29L28 29L28 28L29 28L29 27L28 27L28 25L27 25L27 24L28 24L28 23L29 23L29 22L28 22L28 21L29 21L29 19L28 19L28 20L27 20L27 19L25 19L25 20L24 20L24 19L22 19L22 17L23 17L23 18L24 18L24 17L25 17L25 18L27 18L27 17L28 17L28 16L29 16L29 15L28 15L28 13L29 13L29 12L28 12L28 10L27 10L27 13L26 13L26 12L25 12L25 11L26 11L26 10L25 10L25 9L24 9L24 8ZM26 8L26 9L29 9L29 8ZM5 11L5 12L7 12L7 11ZM18 11L18 12L19 12L19 11ZM23 11L23 12L24 12L24 11ZM15 12L15 13L16 13L16 12ZM1 13L1 16L2 16L2 13ZM3 13L3 16L5 16L5 20L7 20L7 19L8 19L8 20L9 20L9 19L8 19L8 18L7 18L7 17L9 17L9 18L10 18L10 17L9 17L9 15L8 15L8 14L7 14L7 13L6 13L6 14L4 14L4 13ZM25 13L25 14L26 14L26 15L27 15L27 16L28 16L28 15L27 15L27 14L26 14L26 13ZM6 14L6 15L7 15L7 16L6 16L6 17L7 17L7 16L8 16L8 15L7 15L7 14ZM15 14L15 15L16 15L16 14ZM10 15L10 16L11 16L11 15ZM6 18L6 19L7 19L7 18ZM20 18L20 19L21 19L21 20L22 20L22 19L21 19L21 18ZM25 20L25 24L26 24L26 22L27 22L27 23L28 23L28 22L27 22L27 20ZM19 21L19 22L20 22L20 21ZM21 21L21 24L24 24L24 21ZM22 22L22 23L23 23L23 22ZM8 24L8 27L9 27L9 25L10 25L10 24ZM21 25L21 26L22 26L22 25ZM10 26L10 28L9 28L9 29L11 29L11 26ZM0 0L0 7L7 7L7 0ZM1 1L1 6L6 6L6 1ZM2 2L2 5L5 5L5 2ZM22 0L22 7L29 7L29 0ZM23 1L23 6L28 6L28 1ZM24 2L24 5L27 5L27 2ZM0 22L0 29L7 29L7 22ZM1 23L1 28L6 28L6 23ZM2 24L2 27L5 27L5 24Z" fill="#000000"/></g></g></svg>
