<?xml version="1.0" encoding="UTF-8"?>
<svg xmlns="http://www.w3.org/2000/svg" version="1.1" width="200" height="200" viewBox="0 0 200 200"><rect x="0" y="0" width="200" height="200" fill="#ffffff"/><g transform="scale(6.452)"><g transform="translate(1,1)"><path fill-rule="evenodd" d="M8 0L8 1L9 1L9 3L8 3L8 4L9 4L9 3L12 3L12 0L11 0L11 1L10 1L10 0ZM13 0L13 1L14 1L14 2L13 2L13 3L14 3L14 4L10 4L10 5L9 5L9 6L8 6L8 7L9 7L9 8L8 8L8 10L6 10L6 9L7 9L7 8L4 8L4 9L3 9L3 8L2 8L2 10L0 10L0 12L1 12L1 11L2 11L2 10L3 10L3 13L0 13L0 14L3 14L3 15L2 15L2 16L1 16L1 15L0 15L0 17L1 17L1 18L0 18L0 19L1 19L1 20L0 20L0 21L1 21L1 20L2 20L2 21L4 21L4 19L3 19L3 20L2 20L2 19L1 19L1 18L2 18L2 16L3 16L3 18L5 18L5 19L7 19L7 20L6 20L6 21L8 21L8 22L10 22L10 24L9 24L9 23L8 23L8 25L9 25L9 26L8 26L8 27L9 27L9 28L11 28L11 26L13 26L13 27L12 27L12 29L13 29L13 27L14 27L14 26L13 26L13 24L15 24L15 23L16 23L16 22L17 22L17 24L16 24L16 25L15 25L15 28L16 28L16 29L19 29L19 28L18 28L18 26L17 26L17 25L18 25L18 23L20 23L20 24L19 24L19 27L21 27L21 28L20 28L20 29L23 29L23 28L22 28L22 27L21 27L21 25L22 25L22 26L23 26L23 27L25 27L25 28L24 28L24 29L25 29L25 28L26 28L26 29L27 29L27 28L28 28L28 29L29 29L29 26L28 26L28 25L27 25L27 26L26 26L26 24L27 24L27 23L28 23L28 24L29 24L29 21L28 21L28 22L27 22L27 23L25 23L25 22L26 22L26 21L27 21L27 20L26 20L26 17L25 17L25 16L27 16L27 17L29 17L29 14L28 14L28 15L27 15L27 13L26 13L26 12L28 12L28 11L29 11L29 10L28 10L28 11L26 11L26 12L24 12L24 11L25 11L25 10L27 10L27 9L26 9L26 8L25 8L25 10L24 10L24 9L23 9L23 10L22 10L22 11L21 11L21 12L20 12L20 11L19 11L19 10L20 10L20 7L21 7L21 6L20 6L20 7L19 7L19 6L18 6L18 5L19 5L19 4L18 4L18 5L15 5L15 6L14 6L14 8L16 8L16 9L14 9L14 10L15 10L15 11L14 11L14 12L15 12L15 13L18 13L18 12L15 12L15 11L17 11L17 10L16 10L16 9L17 9L17 8L18 8L18 11L19 11L19 12L20 12L20 13L19 13L19 14L20 14L20 15L19 15L19 16L18 16L18 14L15 14L15 16L13 16L13 15L14 15L14 14L12 14L12 16L13 16L13 18L14 18L14 20L13 20L13 19L12 19L12 21L9 21L9 20L11 20L11 18L12 18L12 17L11 17L11 16L10 16L10 17L11 17L11 18L8 18L8 17L9 17L9 15L7 15L7 14L8 14L8 13L7 13L7 12L9 12L9 14L10 14L10 15L11 15L11 12L12 12L12 13L13 13L13 12L12 12L12 10L13 10L13 5L14 5L14 4L16 4L16 2L17 2L17 3L18 3L18 2L17 2L17 1L19 1L19 0L17 0L17 1L14 1L14 0ZM14 2L14 3L15 3L15 2ZM19 2L19 3L20 3L20 5L21 5L21 3L20 3L20 2ZM10 5L10 6L9 6L9 7L10 7L10 6L11 6L11 8L12 8L12 6L11 6L11 5ZM15 6L15 7L16 7L16 6ZM17 6L17 7L18 7L18 6ZM21 8L21 9L22 9L22 8ZM28 8L28 9L29 9L29 8ZM4 9L4 10L5 10L5 11L4 11L4 12L5 12L5 16L4 16L4 17L5 17L5 18L7 18L7 17L5 17L5 16L7 16L7 15L6 15L6 14L7 14L7 13L6 13L6 12L7 12L7 11L6 11L6 10L5 10L5 9ZM9 9L9 10L8 10L8 11L10 11L10 12L11 12L11 11L10 11L10 10L11 10L11 9ZM5 11L5 12L6 12L6 11ZM21 12L21 13L20 13L20 14L22 14L22 15L25 15L25 13L24 13L24 14L23 14L23 12ZM3 13L3 14L4 14L4 13ZM16 15L16 16L15 16L15 20L17 20L17 22L18 22L18 19L19 19L19 20L20 20L20 19L19 19L19 18L18 18L18 17L17 17L17 15ZM20 15L20 16L19 16L19 17L20 17L20 16L21 16L21 15ZM22 16L22 18L21 18L21 20L22 20L22 18L23 18L23 20L24 20L24 19L25 19L25 18L24 18L24 16ZM27 18L27 19L28 19L28 20L29 20L29 18ZM8 19L8 20L9 20L9 19ZM25 20L25 21L26 21L26 20ZM13 21L13 22L14 22L14 23L15 23L15 22L14 22L14 21ZM21 21L21 24L24 24L24 21ZM11 22L11 24L10 24L10 25L11 25L11 24L12 24L12 22ZM22 22L22 23L23 23L23 22ZM23 25L23 26L24 26L24 25ZM9 26L9 27L10 27L10 26ZM16 26L16 27L17 27L17 26ZM25 26L25 27L26 27L26 28L27 28L27 27L28 27L28 26L27 26L27 27L26 27L26 26ZM0 0L0 7L7 7L7 0ZM1 1L1 6L6 6L6 1ZM2 2L2 5L5 5L5 2ZM22 0L22 7L29 7L29 0ZM23 1L23 6L28 6L28 1ZM24 2L24 5L27 5L27 2ZM0 22L0 29L7 29L7 22ZM1 23L1 28L6 28L6 23ZM2 24L2 27L5 27L5 24Z" fill="#000000"/></g></g></svg>
