<?xml version="1.0" encoding="UTF-8"?>
<svg xmlns="http://www.w3.org/2000/svg" version="1.1" width="200" height="200" viewBox="0 0 200 200"><rect x="0" y="0" width="200" height="200" fill="#ffffff"/><g transform="scale(6.452)"><g transform="translate(1,1)"><path fill-rule="evenodd" d="M8 0L8 1L9 1L9 3L8 3L8 4L9 4L9 5L11 5L11 6L10 6L10 7L9 7L9 6L8 6L8 7L9 7L9 8L8 8L8 9L7 9L7 8L4 8L4 9L5 9L5 10L4 10L4 11L5 11L5 12L2 12L2 13L0 13L0 14L3 14L3 15L1 15L1 16L0 16L0 17L1 17L1 18L0 18L0 19L1 19L1 20L0 20L0 21L1 21L1 20L2 20L2 21L4 21L4 18L5 18L5 19L7 19L7 20L6 20L6 21L8 21L8 22L9 22L9 23L8 23L8 25L9 25L9 26L8 26L8 27L9 27L9 28L12 28L12 29L13 29L13 28L12 28L12 27L14 27L14 26L15 26L15 27L17 27L17 28L16 28L16 29L19 29L19 28L18 28L18 26L17 26L17 25L19 25L19 27L21 27L21 28L20 28L20 29L23 29L23 28L22 28L22 27L21 27L21 25L22 25L22 26L23 26L23 27L25 27L25 28L24 28L24 29L25 29L25 28L26 28L26 29L27 29L27 28L28 28L28 29L29 29L29 26L28 26L28 25L29 25L29 23L28 23L28 21L27 21L27 19L28 19L28 20L29 20L29 18L27 18L27 19L26 19L26 17L25 17L25 16L27 16L27 17L29 17L29 16L28 16L28 15L27 15L27 14L29 14L29 13L27 13L27 12L28 12L28 11L29 11L29 10L28 10L28 11L27 11L27 9L26 9L26 8L25 8L25 10L24 10L24 9L23 9L23 10L22 10L22 11L21 11L21 12L20 12L20 11L19 11L19 10L20 10L20 7L21 7L21 6L20 6L20 7L19 7L19 6L18 6L18 5L19 5L19 4L18 4L18 5L15 5L15 6L14 6L14 4L15 4L15 3L16 3L16 2L17 2L17 3L18 3L18 2L17 2L17 1L19 1L19 0L17 0L17 1L15 1L15 0L13 0L13 1L12 1L12 2L11 2L11 1L10 1L10 0ZM13 1L13 2L12 2L12 3L9 3L9 4L14 4L14 3L15 3L15 2L14 2L14 1ZM13 2L13 3L14 3L14 2ZM19 2L19 3L20 3L20 5L21 5L21 3L20 3L20 2ZM11 6L11 7L10 7L10 9L9 9L9 10L8 10L8 11L6 11L6 10L7 10L7 9L6 9L6 10L5 10L5 11L6 11L6 12L5 12L5 13L3 13L3 14L4 14L4 16L1 16L1 17L2 17L2 18L1 18L1 19L2 19L2 20L3 20L3 18L4 18L4 17L6 17L6 18L7 18L7 17L6 17L6 16L7 16L7 15L9 15L9 16L8 16L8 17L9 17L9 18L8 18L8 19L9 19L9 18L10 18L10 17L9 17L9 16L11 16L11 20L9 20L9 21L12 21L12 20L14 20L14 18L13 18L13 16L14 16L14 17L15 17L15 18L16 18L16 20L15 20L15 21L16 21L16 20L17 20L17 22L16 22L16 23L15 23L15 22L14 22L14 23L13 23L13 24L15 24L15 25L16 25L16 24L18 24L18 23L19 23L19 24L20 24L20 23L19 23L19 22L18 22L18 19L19 19L19 20L20 20L20 19L19 19L19 17L20 17L20 16L21 16L21 15L20 15L20 14L22 14L22 15L25 15L25 13L24 13L24 14L23 14L23 12L21 12L21 13L20 13L20 12L19 12L19 11L18 11L18 8L15 8L15 7L16 7L16 6L15 6L15 7L14 7L14 6L13 6L13 8L15 8L15 10L14 10L14 9L11 9L11 8L12 8L12 6ZM17 6L17 7L18 7L18 6ZM2 8L2 9L1 9L1 10L0 10L0 12L1 12L1 11L3 11L3 10L2 10L2 9L3 9L3 8ZM21 8L21 9L22 9L22 8ZM28 8L28 9L29 9L29 8ZM10 9L10 11L8 11L8 12L6 12L6 13L7 13L7 14L6 14L6 15L5 15L5 16L6 16L6 15L7 15L7 14L8 14L8 12L9 12L9 13L10 13L10 14L9 14L9 15L11 15L11 12L10 12L10 11L12 11L12 13L13 13L13 10L11 10L11 9ZM15 10L15 11L14 11L14 12L16 12L16 13L18 13L18 12L17 12L17 11L16 11L16 10ZM25 10L25 11L24 11L24 12L25 12L25 11L26 11L26 12L27 12L27 11L26 11L26 10ZM19 13L19 14L20 14L20 13ZM12 14L12 16L13 16L13 15L15 15L15 16L16 16L16 17L17 17L17 16L16 16L16 15L17 15L17 14ZM18 15L18 16L20 16L20 15ZM22 16L22 18L21 18L21 20L22 20L22 18L23 18L23 20L24 20L24 19L25 19L25 21L26 21L26 22L25 22L25 23L27 23L27 21L26 21L26 19L25 19L25 18L24 18L24 16ZM21 21L21 24L24 24L24 21ZM10 22L10 23L9 23L9 24L10 24L10 23L11 23L11 24L12 24L12 22ZM17 22L17 23L18 23L18 22ZM22 22L22 23L23 23L23 22ZM26 24L26 26L25 26L25 27L26 27L26 28L27 28L27 27L28 27L28 26L27 26L27 25L28 25L28 24ZM10 25L10 26L9 26L9 27L10 27L10 26L11 26L11 27L12 27L12 26L14 26L14 25ZM23 25L23 26L24 26L24 25ZM26 26L26 27L27 27L27 26ZM0 0L0 7L7 7L7 0ZM1 1L1 6L6 6L6 1ZM2 2L2 5L5 5L5 2ZM22 0L22 7L29 7L29 0ZM23 1L23 6L28 6L28 1ZM24 2L24 5L27 5L27 2ZM0 22L0 29L7 29L7 22ZM1 23L1 28L6 28L6 23ZM2 24L2 27L5 27L5 24Z" fill="#000000"/></g></g></svg>
