<?xml version="1.0" encoding="UTF-8"?>
<svg xmlns="http://www.w3.org/2000/svg" version="1.1" width="200" height="200" viewBox="0 0 200 200"><rect x="0" y="0" width="200" height="200" fill="#ffffff"/><g transform="scale(6.452)"><g transform="translate(1,1)"><path fill-rule="evenodd" d="M8 0L8 3L9 3L9 5L8 5L8 10L9 10L9 11L8 11L8 12L5 12L5 11L7 11L7 10L6 10L6 9L7 9L7 8L6 8L6 9L5 9L5 8L2 8L2 9L5 9L5 10L4 10L4 12L3 12L3 13L2 13L2 10L1 10L1 9L0 9L0 11L1 11L1 13L0 13L0 16L2 16L2 17L0 17L0 21L1 21L1 18L2 18L2 21L3 21L3 20L4 20L4 21L8 21L8 22L11 22L11 23L10 23L10 24L8 24L8 27L9 27L9 25L10 25L10 28L9 28L9 29L13 29L13 28L14 28L14 29L15 29L15 28L16 28L16 29L18 29L18 28L20 28L20 26L21 26L21 28L22 28L22 27L23 27L23 28L24 28L24 29L25 29L25 26L24 26L24 25L27 25L27 29L28 29L28 28L29 28L29 27L28 27L28 25L27 25L27 23L29 23L29 22L26 22L26 24L25 24L25 20L24 20L24 19L22 19L22 17L23 17L23 18L24 18L24 17L25 17L25 19L26 19L26 20L27 20L27 21L29 21L29 19L28 19L28 20L27 20L27 18L26 18L26 17L27 17L27 16L29 16L29 15L28 15L28 14L29 14L29 12L28 12L28 10L27 10L27 11L25 11L25 10L26 10L26 9L29 9L29 8L26 8L26 9L24 9L24 8L18 8L18 9L24 9L24 10L23 10L23 11L22 11L22 10L20 10L20 11L21 11L21 13L24 13L24 14L25 14L25 15L26 15L26 17L25 17L25 16L24 16L24 17L23 17L23 14L22 14L22 15L21 15L21 16L22 16L22 17L20 17L20 18L19 18L19 17L18 17L18 16L19 16L19 15L18 15L18 14L16 14L16 13L17 13L17 12L16 12L16 13L15 13L15 10L13 10L13 9L17 9L17 4L16 4L16 5L15 5L15 2L16 2L16 1L17 1L17 3L18 3L18 2L19 2L19 4L18 4L18 7L19 7L19 6L20 6L20 7L21 7L21 6L20 6L20 5L19 5L19 4L21 4L21 2L20 2L20 1L21 1L21 0L20 0L20 1L19 1L19 0L16 0L16 1L15 1L15 2L14 2L14 4L13 4L13 2L12 2L12 1L14 1L14 0L12 0L12 1L9 1L9 0ZM9 2L9 3L11 3L11 2ZM11 4L11 5L12 5L12 6L11 6L11 7L12 7L12 6L13 6L13 8L12 8L12 9L13 9L13 8L15 8L15 7L16 7L16 6L15 6L15 7L14 7L14 5L13 5L13 4ZM9 5L9 7L10 7L10 5ZM9 8L9 9L10 9L10 8ZM10 10L10 11L11 11L11 12L12 12L12 13L14 13L14 11L13 11L13 12L12 12L12 10ZM18 11L18 12L19 12L19 11ZM23 11L23 12L24 12L24 11ZM25 12L25 14L26 14L26 15L27 15L27 14L26 14L26 12ZM1 13L1 14L2 14L2 13ZM3 13L3 17L2 17L2 18L3 18L3 17L6 17L6 18L5 18L5 20L8 20L8 19L9 19L9 18L10 18L10 21L11 21L11 22L13 22L13 21L14 21L14 22L15 22L15 23L13 23L13 24L14 24L14 25L13 25L13 27L12 27L12 26L11 26L11 28L13 28L13 27L15 27L15 26L17 26L17 27L16 27L16 28L17 28L17 27L19 27L19 26L20 26L20 25L19 25L19 22L20 22L20 21L19 21L19 18L18 18L18 17L17 17L17 15L16 15L16 14L15 14L15 15L14 15L14 14L11 14L11 13L9 13L9 14L11 14L11 15L8 15L8 14L7 14L7 13L6 13L6 14L5 14L5 13ZM4 14L4 16L5 16L5 14ZM6 14L6 15L7 15L7 16L6 16L6 17L7 17L7 16L8 16L8 15L7 15L7 14ZM11 15L11 16L12 16L12 17L13 17L13 18L11 18L11 17L10 17L10 16L9 16L9 17L8 17L8 18L6 18L6 19L8 19L8 18L9 18L9 17L10 17L10 18L11 18L11 19L13 19L13 20L11 20L11 21L13 21L13 20L15 20L15 21L17 21L17 17L15 17L15 19L13 19L13 18L14 18L14 17L13 17L13 16L14 16L14 15L13 15L13 16L12 16L12 15ZM15 15L15 16L16 16L16 15ZM20 18L20 19L21 19L21 20L22 20L22 19L21 19L21 18ZM15 19L15 20L16 20L16 19ZM18 21L18 22L19 22L19 21ZM21 21L21 24L24 24L24 21ZM16 22L16 23L17 23L17 24L16 24L16 25L17 25L17 26L18 26L18 25L17 25L17 24L18 24L18 23L17 23L17 22ZM22 22L22 23L23 23L23 22ZM21 25L21 26L22 26L22 25ZM0 0L0 7L7 7L7 0ZM1 1L1 6L6 6L6 1ZM2 2L2 5L5 5L5 2ZM22 0L22 7L29 7L29 0ZM23 1L23 6L28 6L28 1ZM24 2L24 5L27 5L27 2ZM0 22L0 29L7 29L7 22ZM1 23L1 28L6 28L6 23ZM2 24L2 27L5 27L5 24Z" fill="#000000"/></g></g></svg>
